<?xml version="1.0" encoding="UTF-8" standalone="no"?>
<svg
   xmlns:dc="http://purl.org/dc/elements/1.1/"
   xmlns:cc="http://creativecommons.org/ns#"
   xmlns:rdf="http://www.w3.org/1999/02/22-rdf-syntax-ns#"
   xmlns:svg="http://www.w3.org/2000/svg"
   xmlns="http://www.w3.org/2000/svg"
   xmlns:sodipodi="http://sodipodi.sourceforge.net/DTD/sodipodi-0.dtd"
   xmlns:inkscape="http://www.inkscape.org/namespaces/inkscape"
   width="16.0px"
   height="16.0px"
   viewBox="0 0 16.0 16.0"
   version="1.1"
   id="SVGRoot"
   sodipodi:docname="altfinHubLogo.svg"
   inkscape:version="1.0.1 (3bc2e813f5, 2020-09-07)">
  <defs
     id="defs10">
    <inkscape:path-effect
       effect="spiro"
       id="path-effect42"
       is_visible="true"
       lpeversion="1" />
    <inkscape:path-effect
       effect="spiro"
       id="path-effect38"
       is_visible="true"
       lpeversion="1" />
  </defs>
  <sodipodi:namedview
     id="base"
     pagecolor="#ffffff"
     bordercolor="#666666"
     borderopacity="1.0"
     inkscape:pageopacity="0.0"
     inkscape:pageshadow="2"
     inkscape:zoom="31.678384"
     inkscape:cx="8.0483641"
     inkscape:cy="7.5179904"
     inkscape:document-units="px"
     inkscape:current-layer="layer1"
     inkscape:document-rotation="0"
     showgrid="true"
     inkscape:window-width="1267"
     inkscape:window-height="930"
     inkscape:window-x="2285"
     inkscape:window-y="60"
     inkscape:window-maximized="0">
    <inkscape:grid
       type="xygrid"
       id="grid19" />
  </sodipodi:namedview>
  <metadata
     id="metadata13">
    <rdf:RDF>
      <cc:Work
         rdf:about="">
        <dc:format>image/svg+xml</dc:format>
        <dc:type
           rdf:resource="http://purl.org/dc/dcmitype/StillImage" />
        <dc:title></dc:title>
      </cc:Work>
    </rdf:RDF>
  </metadata>
  <g
     inkscape:label="Layer 1"
     inkscape:groupmode="layer"
     id="layer1">
    <circle
       style="fill:#008000;fill-rule:evenodd;stroke-width:1.23443"
       id="path26"
       cx="8"
       cy="8"
       r="8" />
    <path
       style="fill:none;stroke:#000000;stroke-width:0.0327229px;stroke-linecap:butt;stroke-linejoin:miter;stroke-opacity:1"
       d="M 8,16 C 6.9528321,15.999953 5.912131,15.56884 5.171688,14.828364 4.431245,14.087888 4.0001781,13.047168 4.0001781,12 4.0001781,10.952832 4.431245,9.9121117 5.171688,9.1716356 5.912131,8.4311596 6.9528321,8.0000464 8,7.9999997 c 3.567e-4,0 7.133e-4,0 0.00107,0 1.0470935,-4.67e-5 2.0877,-0.4312675 2.827964,-1.1718176 0.740264,-0.7405502 1.171077,-1.7812932 1.170877,-2.8283867 -2e-4,-1.0470935 -0.431393,-2.0876469 -1.171828,-2.8280261 C 10.087649,0.43139006 9.0470935,2.7998965e-4 8,0 7.9992867,-1.9074318e-7 7.9985733,-1.9074318e-7 7.99786,0"
       id="path40"
       inkscape:path-effect="#path-effect42"
       inkscape:original-d="m 8,16 c 1.1e-6,-2.665667 1.1e-6,-5.332333 0,-8.0000003 -1.1e-6,-2.6676666 7.154e-4,9.938e-4 0.00107,0 C 8.0014269,7.9990059 8.000358,2.6676668 8,0 7.9996417,-2.6676667 7.99857,9.9970309e-4 7.99786,0" />
    <path
       style="fill:#008000;stroke-width:0.0223214"
       d="M 6.5927555,15.863865 C 3.5166124,15.307201 1.0439204,13.0108 0.26301223,9.9854003 0.17744928,9.6539117 0.09323747,9.1854468 0.04957543,8.7980651 0.00660841,8.4168497 0.0126602,7.4985358 0.06075508,7.1016365 0.24892953,5.5487412 0.81776737,4.1969258 1.8029754,2.9613342 2.0397454,2.6643909 2.6817441,2.0246984 2.9878447,1.780721 4.1424084,0.86047677 5.5230072,0.26744353 6.9409785,0.08266084 7.8496702,-0.03575515 8.5433584,0.00889659 9.2373845,0.2304773 9.5287979,0.3235164 10.053777,0.5893754 10.320434,0.77895371 10.593476,0.97307103 11.026782,1.4068028 11.218128,1.6775293 11.673621,2.3219847 11.930227,3.066184 11.9647,3.8427079 12.03485,5.4229702 11.112454,6.9360079 9.6763501,7.5963512 9.1562492,7.8355017 8.5547818,7.9714851 8.0148669,7.9719892 6.9044291,7.9730249 5.7906548,8.4600782 5.0430026,9.2715829 4.789618,9.5466077 4.6025423,9.8202802 4.4206689,10.181994 c -0.2905128,0.577777 -0.4115445,1.04296 -0.4326661,1.662946 -0.015088,0.442885 0.011269,0.718413 0.105729,1.10524 0.3432007,1.40546 1.3825348,2.491671 2.7892022,2.915005 0.15075,0.04537 0.158525,0.05032 0.078125,0.04978 -0.049107,-3.33e-4 -0.2148437,-0.02333 -0.3683035,-0.0511 z"
       id="path44" />
    <path
       style="fill:#ff0000;stroke-width:0.0223214"
       d="M 6.6262376,15.8712 C 3.6285668,15.339035 1.2112465,13.178706 0.33517674,10.248958 -0.12514648,8.7095474 -0.08827444,6.9574655 0.43664228,5.4275293 1.2134488,3.1634284 2.9638403,1.3597633 5.1999077,0.51929259 5.9482171,0.23802556 6.7005648,0.0798925 7.5461782,0.02613913 8.5188195,-0.03568907 9.4154104,0.18968435 10.186505,0.68983049 11.405186,1.4802886 12.113382,2.9755557 11.948944,4.4109999 11.756096,6.0944429 10.584259,7.4422146 8.9588269,7.8500407 8.6402994,7.9299601 8.4985613,7.94822 8.0112794,7.9721104 7.3333334,8.0053488 6.9377106,8.0879331 6.4347182,8.3012099 5.2999244,8.7823805 4.4793383,9.7105048 4.1348048,10.902528 c -0.097826,0.338461 -0.1336404,0.576127 -0.1470589,0.975894 -0.022362,0.66622 0.097559,1.239784 0.3872147,1.851988 0.4711444,0.99579 1.3047087,1.727233 2.3799652,2.088391 0.3361705,0.112913 0.2985259,0.128241 -0.1286882,0.0524 z"
       id="path46" />
    <path
       d="m 6.9892173,10.419402 c -0.07943,0.0403 -0.1097987,0.148637 -0.075925,0.269242 0.029201,0.104837 0.1027909,0.204705 0.1974051,0.268658 0.01489,0.01021 0.027161,0.01957 0.02745,0.02074 0,0.0012 -0.00469,0.0044 -0.010509,0.0067 -0.013431,0.0056 -0.023656,0.004 -0.070669,-0.01081 -0.052563,-0.01664 -0.067164,-0.01488 -0.073589,0.0091 -0.00643,0.02424 0.00993,0.04409 0.058404,0.07184 0.013725,0.0077 0.034166,0.01928 0.045262,0.0257 0.023361,0.01313 0.051688,0.03883 0.056944,0.05139 0.0032,0.0077 0.00234,0.01021 -0.011396,0.03271 -0.03212,0.05374 -0.056943,0.118565 -0.067748,0.1793 -0.00526,0.02803 -0.00643,0.04673 -0.00671,0.09608 -3.016e-4,0.06221 0.00174,0.08353 0.013431,0.148346 0.0073,0.04002 0.00643,0.05198 -0.010801,0.130532 -0.00555,0.02482 -0.015186,0.06921 -0.021606,0.09841 -0.016645,0.07621 -0.021315,0.109794 -0.021026,0.158566 0,0.05314 0.00584,0.08439 0.02307,0.127029 l 0.00584,0.01488 -0.015185,0.0079 c -0.00847,0.0044 -0.023945,0.01519 -0.034165,0.02395 -0.044096,0.0365 -0.069502,0.08353 -0.1045429,0.194195 -0.00993,0.03124 -0.020735,0.06512 -0.024236,0.07534 -0.0032,0.01 -0.024821,0.05724 -0.047893,0.105129 -0.080889,0.166159 -0.095782,0.191565 -0.1498061,0.256101 -0.1027909,0.122357 -0.1027909,0.122357 -0.1778405,0.183972 -0.0622,0.05081 -0.083809,0.07855 -0.087314,0.113596 -0.00147,0.01431 -5.595e-4,0.0187 0.00759,0.03534 0.00993,0.01986 0.021026,0.03096 0.044097,0.04351 0.047307,0.0257 0.1334528,0.026 0.1836806,5.6e-4 0.038546,-0.01957 0.051394,-0.04234 0.064828,-0.113888 0.014016,-0.07446 0.0219,-0.09433 0.055775,-0.139294 0.03329,-0.04409 0.06658,-0.07097 0.1822201,-0.146886 0.092863,-0.06073 0.119144,-0.08439 0.1483464,-0.132578 0.010509,-0.01752 0.025115,-0.03738 0.03212,-0.0438 0.014311,-0.01313 0.025115,-0.01606 0.025115,-0.0067 0,0.0032 0.00351,0.01664 0.00759,0.03007 0.0219,0.0698 0.063952,0.108919 0.1302407,0.120898 0.042051,0.0079 0.108924,0.0021 0.1708317,-0.0146 l 0.015476,-0.004 0.0032,0.01203 c 0.00469,0.01723 0.00407,0.04993 -0.00147,0.07212 -0.00671,0.02745 -0.030371,0.07301 -0.054899,0.105711 -0.035335,0.04702 -0.1095071,0.130241 -0.1290726,0.144551 -0.024235,0.01781 -0.065121,0.03708 -0.1331608,0.0622 -0.08965,0.03329 -0.1246925,0.05432 -0.1413376,0.08469 -0.016935,0.03124 -0.00963,0.07096 0.018395,0.09899 0.022781,0.02278 0.069502,0.04292 0.1153474,0.04993 0.046722,0.007 0.1097999,0.0032 0.1314092,-0.0079 0.016935,-0.0087 0.040591,-0.03476 0.065997,-0.07242 0.036796,-0.05432 0.053147,-0.06949 0.1416291,-0.131408 0.035626,-0.02511 0.094906,-0.06863 0.2190149,-0.160611 0.017815,-0.01313 0.047893,-0.03737 0.067164,-0.05374 0.023945,-0.02016 0.043223,-0.03387 0.061032,-0.04264 0.014016,-0.0073 0.027451,-0.01313 0.029495,-0.01313 0.00203,0 0.027451,0.01166 0.05636,0.026 0.089066,0.0438 0.1372483,0.05782 0.2085015,0.06073 0.052273,0.0021 0.099579,-0.0023 0.1629469,-0.01488 0.025695,-0.0053 0.0476,-0.0088 0.048183,-0.008 0.00289,0.0027 0.00145,0.01227 -0.00289,0.02074 -0.00234,0.0046 -0.017224,0.0187 -0.032704,0.03124 -0.015769,0.01255 -0.031536,0.02745 -0.035044,0.03271 -0.017519,0.02599 -0.00114,0.05519 0.050517,0.08936 0.049062,0.03243 0.060741,0.03622 0.1483459,0.04819 0.08235,0.01166 0.1042513,0.01898 0.1235243,0.04088 0.00788,0.0091 0.01314,0.02861 0.010801,0.04088 -0.00469,0.02307 -0.028035,0.03476 -0.1092155,0.05549 -0.080305,0.02045 -0.1007462,0.03182 -0.098703,0.05519 l 8.422e-4,0.01045 0.050812,0.01227 c 0.058989,0.01431 0.097827,0.02131 0.1171005,0.02131 0.00759,0 0.028913,-0.0027 0.047017,-0.0058 0.018398,-0.0029 0.054314,-0.0083 0.080013,-0.01166 0.088481,-0.01166 0.1416295,-0.02482 0.1752116,-0.04381 0.032999,-0.0187 0.056943,-0.05286 0.056943,-0.08176 0,-0.02978 -0.017519,-0.05139 -0.081765,-0.100451 -0.072128,-0.0549 -0.089066,-0.07592 -0.089066,-0.109794 3.014e-4,-0.03183 0.016647,-0.0511 0.064245,-0.07475 0.041174,-0.02045 0.064536,-0.02365 0.13462,-0.01986 l 0.032414,0.0021 0.00672,0.01344 c 0.00963,0.01986 0.029497,0.04673 0.045849,0.0622 0.051395,0.04759 0.1036669,0.03737 0.1474699,-0.02891 l 0.00994,-0.01519 0.034165,0.0254 c 0.041469,0.03124 0.056654,0.03941 0.078846,0.04088 0.016358,0.0012 0.016935,0.0012 0.029497,-0.01142 0.00791,-0.0083 0.014884,-0.01928 0.018692,-0.0295 0.00761,-0.02016 0.014312,-0.06921 0.01693,-0.119732 l 0.00169,-0.03708 0.010218,-0.0021 c 0.017813,-0.0032 0.062488,8.43e-4 0.081763,0.0077 0.010218,0.0035 0.042342,0.02016 0.071543,0.03708 0.079133,0.04584 0.1357883,0.07126 0.2093779,0.09491 0.042631,0.01344 0.049934,0.02132 0.083807,0.0876 0.031242,0.06162 0.047017,0.07972 0.085272,0.09754 0.020155,0.0097 0.024533,0.01285 0.02803,0.02161 0.00463,0.01166 0.00909,0.03855 0.013433,0.08031 0.00349,0.03271 0.00701,0.04789 0.014601,0.06279 0.010218,0.01957 0.016063,0.02278 0.052563,0.02775 0.03942,0.005 0.07213,0.0056 0.08381,0.0012 0.0216,-0.0083 0.03534,-0.03591 0.03213,-0.0657 -0.0018,-0.01811 -0.0146,-0.04584 -0.03124,-0.06833 -0.0064,-0.0087 -0.02978,-0.03622 -0.05198,-0.06104 -0.02191,-0.02453 -0.0473,-0.05432 -0.05636,-0.0663 -0.014896,-0.01986 -0.016647,-0.02365 -0.019859,-0.04584 -0.00234,-0.01313 -0.00909,-0.04497 -0.015479,-0.07067 -0.032421,-0.130826 -0.076513,-0.199159 -0.1579837,-0.245298 l -0.030971,-0.01757 -0.055192,-0.08322 c -0.030376,-0.04584 -0.069496,-0.101921 -0.087021,-0.124984 -0.017525,-0.02307 -0.040002,-0.05694 -0.049934,-0.07534 -0.043226,-0.08031 -0.077384,-0.114763 -0.1833888,-0.185141 -0.032993,-0.02191 -0.057238,-0.04059 -0.072128,-0.05549 -0.012555,-0.01255 -0.022778,-0.02395 -0.022778,-0.0254 0,-0.0015 0.011384,-0.01106 0.025407,-0.02132 0.069793,-0.05168 0.1536021,-0.12878 0.188645,-0.173168 0.1051273,-0.133745 0.063071,-0.217555 -0.1337446,-0.26603 -0.044388,-0.01081 -0.1013318,-0.02074 -0.2055824,-0.03562 -0.05198,-0.0073 -0.097535,-0.0146 -0.101039,-0.01576 -0.00499,-0.0018 -0.00759,-0.007 -0.011384,-0.02161 -0.013723,-0.05519 0.00145,-0.08644 0.055481,-0.112722 0.013433,-0.0067 0.067164,-0.02628 0.1188524,-0.04351 0.095198,-0.03183 0.1442578,-0.05052 0.1950686,-0.07417 l 0.028029,-0.01313 0.00318,-0.0257 c 0.00524,-0.03913 0.00583,-0.05286 0.00318,-0.08177 -0.00403,-0.04731 -0.018109,-0.07885 -0.058694,-0.132869 -0.035339,-0.04702 -0.041463,-0.06073 -0.039417,-0.09023 5.595e-4,-0.01313 0.00385,-0.02745 0.00761,-0.03591 L 9.3894375,11 9.3771705,11.0021 c -0.066288,0.01 -0.099579,0.02219 -0.122356,0.04498 -0.027157,0.02717 -0.029202,0.05227 -0.011092,0.122941 0.011688,0.04555 0.01285,0.07475 0.00349,0.09198 -0.015473,0.0292 -0.05811,0.06747 -0.1293643,0.116512 -0.059283,0.04088 -0.090819,0.06395 -0.1092155,0.08002 -0.038834,0.03418 -0.067456,0.07768 -0.074758,0.113597 -0.015769,0.07534 0.031248,0.126153 0.1471781,0.159735 0.033582,0.01 0.096366,0.02218 0.1871849,0.0368 0.083227,0.01344 0.129949,0.02335 0.1573983,0.033 0.099287,0.0362 0.070673,0.09695 -0.098994,0.210838 -0.04994,0.03358 -0.126737,0.08031 -0.1319933,0.08031 -0.00175,0 -0.040591,-0.01665 -0.086146,-0.0368 -0.2228104,-0.09899 -0.324434,-0.129656 -0.457887,-0.138417 -0.040296,-0.0029 -0.046432,-0.0039 -0.055481,-0.01021 -0.018981,-0.01314 -0.056654,-0.04556 -0.1162233,-0.09987 C 8.3977294,11.733056 8.3708646,11.710276 8.3364055,11.68691 8.2961095,11.65946 8.2555165,11.6396 8.208209,11.62412 8.175793,11.61367 8.164113,11.60806 8.143964,11.59434 8.077967,11.54879 8.0259875,11.492127 7.9944496,11.431101 c -0.01606,-0.03066 -0.023071,-0.04877 -0.032416,-0.08411 -0.00701,-0.02717 -0.00759,-0.03418 -0.00759,-0.08644 0,-0.05461 3.017e-4,-0.0584 0.00905,-0.09111 0.00498,-0.01869 0.012265,-0.0403 0.01606,-0.04819 0.01343,-0.02657 0.038546,-0.03737 0.1159317,-0.04907 0.050227,-0.0079 0.073297,-0.01431 0.087897,-0.02482 0.01723,-0.01227 0.023945,-0.03766 0.013139,-0.04964 -0.00289,-0.0032 -0.01723,-0.01227 -0.031536,-0.01986 -0.028326,-0.01488 -0.038257,-0.02424 -0.042926,-0.04088 -0.00701,-0.02511 5.596e-4,-0.04906 0.019856,-0.06454 0.00584,-0.0046 0.036211,-0.02132 0.067164,-0.0368 0.046143,-0.02335 0.059867,-0.03182 0.075925,-0.04673 0.03475,-0.03241 0.046143,-0.0619 0.043509,-0.115054 -0.00175,-0.04322 -0.01489,-0.08935 -0.041759,-0.147762 -0.00847,-0.01841 -0.047305,-0.09198 -0.050523,-0.09549 -8.423e-4,-0.0012 -0.00114,0.02919 -8.423e-4,0.06716 0.00204,0.123525 -0.010218,0.192148 -0.042342,0.240624 -0.027451,0.04176 -0.056068,0.05432 -0.1468858,0.06483 -0.040007,0.0046 -0.068624,0.01142 -0.087897,0.02074 l -0.010801,0.0052 -0.031535,-0.01986 c -0.080304,-0.05052 -0.1299477,-0.06104 -0.2041209,-0.0438 -0.049937,0.01166 -0.075925,0.01227 -0.1109675,0.0035 -0.066872,-0.01723 -0.1521424,-0.02745 -0.2020777,-0.02424 -0.06658,0.0044 -0.1013306,0.01548 -0.1544782,0.04993 -0.01314,0.0085 -0.02628,0.01635 -0.029496,0.01723 -0.00437,0.0015 -0.024236,-0.0077 -0.067457,-0.03008 -0.07388,-0.03826 -0.083226,-0.04439 -0.1118435,-0.0733 -0.037961,-0.03825 -0.053147,-0.07913 -0.053147,-0.14309 0,-0.03972 0.00555,-0.07885 0.017225,-0.123525 0.00439,-0.01577 0.0073,-0.0292 0.00671,-0.02978 -5.596e-4,-3.01e-4 -0.00847,0.0029 -0.01723,0.0073 z"
       id="path62"
       style="fill:#000000;stroke:none;stroke-width:0.000292019" />
    <path
       d="m 8.2895652,3.4944134 c 0.00503,0.00553 0.00786,0.00657 0.010377,0.00381 0.00222,-0.00242 0.00692,-0.00276 0.01447,-3.587e-4 0.00598,0.00175 0.012898,0.00242 0.01573,0.00138 0.00251,-0.00105 0.00755,-3.589e-4 0.011326,0.00207 0.00755,0.0045 0.037119,0.012096 0.065116,0.016594 0.0173,0.00276 0.024223,0.0045 0.056623,0.015559 0.03303,0.011066 0.084934,0.03976 0.1261429,0.069839 0.00849,0.00622 0.017301,0.011405 0.019817,0.011405 0.00251,0 0.010068,0.00691 0.016673,0.014867 0.013527,0.016942 0.020131,0.021435 0.041838,0.028695 0.00975,0.0031 0.016043,0.00726 0.0173,0.011757 0.00159,0.00588 0.02548,0.021091 0.035232,0.022818 0.00222,3.587e-4 0.00629,0.0031 0.00912,0.00622 0.00251,0.0031 0.00723,0.00553 0.010377,0.00553 0.00282,0 0.014156,0.00691 0.025166,0.015211 0.010697,0.0083 0.023278,0.016249 0.027996,0.017632 0.00472,0.00105 0.011326,0.00519 0.014784,0.0083 0.00347,0.00347 0.011955,0.00761 0.018875,0.00899 0.00692,0.00138 0.016673,0.0031 0.022019,0.00416 0.00503,0.00105 0.011326,0.00484 0.013526,0.0083 0.0022,0.00381 0.00755,0.00657 0.011326,0.00657 0.00409,0 0.00912,0.00242 0.011326,0.00519 0.0022,0.0031 0.00598,0.00484 0.00818,0.00381 0.00188,-6.899e-4 0.00692,0.00207 0.011006,0.00691 0.00472,0.00553 0.00912,0.00761 0.012898,0.00622 0.00409,-0.00138 0.00786,0.00105 0.012268,0.00691 0.00347,0.00484 0.00881,0.00899 0.011955,0.00899 0.00629,0 0.060397,0.029389 0.074868,0.040452 0.00535,0.0045 0.011326,0.00795 0.012898,0.00795 0.00159,0 0.00379,0.00242 0.00503,0.00519 9.554e-4,0.00276 0.0044,0.00519 0.00786,0.00519 0.00316,0 0.012898,0.00622 0.021075,0.014176 0.00849,0.00761 0.020131,0.016249 0.025795,0.018669 0.00598,0.00276 0.011326,0.00795 0.012268,0.011757 9.553e-4,0.00347 0.00535,0.00761 0.00975,0.00864 0.00535,0.00138 0.012581,0.0083 0.01919,0.018669 0.00692,0.011066 0.014784,0.018325 0.023592,0.022474 0.017931,0.00795 0.023278,0.00726 0.027996,-0.00347 0.00535,-0.013483 0.013213,-0.021091 0.032716,-0.032498 0.022965,-0.013483 0.031457,-0.012793 0.054106,0.00381 0.019817,0.014521 0.035546,0.036647 0.047815,0.067764 0.00912,0.022819 0.020761,0.035956 0.031771,0.035956 0.00503,0 0.014156,0.00244 0.020133,0.00519 0.010068,0.0045 0.012585,0.0045 0.02265,-3.311e-4 0.00629,-0.00276 0.016673,-0.00968 0.02265,-0.014866 0.00598,-0.00519 0.015729,-0.012448 0.021392,-0.015559 0.00566,-0.0031 0.011006,-0.00795 0.011955,-0.010714 0.00255,-0.00657 0.022646,-0.00968 0.033028,-0.00519 0.028624,0.013139 0.056311,0.090929 0.05127,0.1441722 l -0.00191,0.021435 0.017933,0.023511 c 0.010072,0.012793 0.020135,0.024894 0.022337,0.026276 0.00564,0.00347 0.029889,0.044946 0.045611,0.07779 0.019507,0.040796 0.025476,0.052552 0.038378,0.076062 0.015722,0.028697 0.017305,0.039068 0.00846,0.051516 -0.00373,0.00519 -0.00914,0.010714 -0.011637,0.011757 -0.00473,0.00175 -0.00819,0.020398 -0.00373,0.020398 0.00127,0 0.00127,0.00691 6.269e-4,0.015212 -0.00127,0.011405 3.021e-4,0.019708 0.00591,0.033883 0.00719,0.016942 0.055993,0.087818 0.068567,0.099572 0.00318,0.00276 0.010745,0.012448 0.016678,0.021091 0.026741,0.039068 0.076128,0.098881 0.087128,0.1051038 0.00664,0.00381 0.01605,0.010375 0.020763,0.014522 0.00792,0.00657 0.00846,0.0083 0.00591,0.016942 -0.005,0.015212 -0.026113,0.029733 -0.044046,0.029733 -0.012265,3.313e-4 -0.014157,0.00105 -0.010054,0.0045 0.00282,0.00242 0.00409,0.00553 0.00282,0.00691 -0.00127,0.00175 3.02e-4,0.00175 0.00373,3.312e-4 0.00437,-0.00175 0.00537,-0.00105 0.00373,0.00345 -10e-4,0.00276 -0.00191,0.00588 -0.00191,0.00657 0,6.9e-4 -0.00664,0.00553 -0.015095,0.011405 -0.019817,0.014176 -0.053472,0.02524 -0.084307,0.028004 -0.024539,0.00242 -0.026422,0.00347 -0.044983,0.01936 -0.010745,0.00899 -0.020135,0.015905 -0.021072,0.014866 -9.099e-4,-0.00105 6.278e-4,-0.00795 0.00318,-0.014866 0.00282,-0.00691 0.00409,-0.014176 0.00318,-0.015904 -9.099e-4,-0.00175 -0.00914,-0.00553 -0.018561,-0.00864 -0.00948,-0.00276 -0.025476,-0.011757 -0.03523,-0.020053 -0.023911,-0.019362 -0.045929,-0.033191 -0.052217,-0.033191 -0.00782,0 -0.00664,0.014176 0.00255,0.029042 0.00437,0.00691 0.00782,0.013828 0.00782,0.015211 0,0.00138 0.00628,0.00968 0.014157,0.017977 0.016987,0.018325 0.01887,0.031461 0.00601,0.046675 -0.00473,0.00553 -0.00691,0.010714 -0.005,0.012793 0.00473,0.00519 0.018871,-0.0031 0.02422,-0.014522 0.00628,-0.013139 0.010372,-0.013483 0.00846,-3.312e-4 -0.00155,0.013139 0.00437,0.016594 0.013211,0.00761 0.01131,-0.011757 0.01635,-0.00864 0.00701,0.0045 -0.00883,0.013139 -0.010072,0.01936 -0.00464,0.02524 0.00464,0.00519 3.021e-4,0.039068 -0.00601,0.047712 -0.00728,0.00968 -0.026422,0.017632 -0.053472,0.022126 -0.045611,0.00761 -0.075809,0.00276 -0.1025495,-0.016594 -0.024536,-0.018325 -0.034917,-0.024546 -0.04058,-0.024546 -0.00347,0 -0.00818,-0.00276 -0.011006,-0.00622 -0.00661,-0.00795 -0.039321,-0.019708 -0.046242,-0.016594 -0.00282,0.00105 -0.00786,3.314e-4 -0.011006,-0.00138 -0.00347,-0.00207 -0.00661,-0.00207 -0.00755,-3.312e-4 -9.553e-4,0.00175 -0.010377,0.00242 -0.020761,0.00138 -0.013527,-0.00138 -0.018873,-6.898e-4 -0.018873,0.00207 0,0.00242 -0.00251,0.00381 -0.00566,0.0031 -0.00755,-0.00138 -0.016357,0.00657 -0.016357,0.014867 0,0.00726 -0.00503,0.00899 -0.00692,0.00276 -0.00188,-0.00657 -0.015098,0 -0.015098,0.00726 0,0.0045 -0.00282,0.00761 -0.00786,0.00899 -0.00849,0.00242 -0.00944,0.00726 -0.00503,0.024894 0.00251,0.00864 0.0022,0.011066 -6.278e-4,0.010023 -0.0022,-6.899e-4 -0.00409,-0.0045 -0.00472,-0.00864 -0.00126,-0.00899 -0.00598,-0.010024 -0.00786,-0.00175 -9.554e-4,0.00484 -0.00188,0.00381 -0.00347,-0.0031 -0.00282,-0.011066 -0.00818,-0.012793 -0.00818,-0.00276 0,0.00381 -0.00159,0.00691 -0.00316,0.00691 -0.00188,0 -0.00316,-0.00242 -0.00316,-0.00519 0,-0.00276 -0.0022,-0.00519 -0.00472,-0.00519 -0.00409,0 -0.00472,-0.00242 -0.00282,-0.012096 0.00159,-0.010024 9.554e-4,-0.012096 -0.00347,-0.012096 -0.00282,0 -0.00598,0.0031 -0.00692,0.00691 -0.00282,0.011405 -0.00661,0.00795 -0.00629,-0.00553 3.013e-4,-0.00899 -0.00159,-0.013828 -0.00661,-0.018325 -0.0044,-0.00347 -0.00598,-0.00691 -0.00409,-0.00899 0.00159,-0.00207 0.00378,-0.00691 0.00503,-0.011405 0.00188,-0.00726 0.00126,-0.00795 -0.00535,-0.00691 -0.00566,6.899e-4 -0.00786,0.00416 -0.010697,0.016249 -0.00188,0.00899 -0.00409,0.013828 -0.00566,0.011405 -0.00126,-0.00207 -9.553e-4,-0.00933 6.276e-4,-0.015904 0.00316,-0.012448 3.014e-4,-0.02178 -0.00535,-0.017977 -0.00188,0.00138 -0.00251,0.00622 -0.00159,0.010714 9.554e-4,0.00416 3.014e-4,0.00899 -0.00159,0.010023 -0.00188,0.00138 -0.00347,6.898e-4 -0.00347,-0.00105 0,-0.00207 -0.00222,-0.00381 -0.00503,-0.00381 -0.0044,0 -0.00503,-0.00242 -0.00347,-0.015559 0.0022,-0.015905 -3.014e-4,-0.01936 -0.00723,-0.010375 -0.00723,0.00933 -0.00975,0.00138 -0.00316,-0.010023 0.00629,-0.011405 0.00849,-0.029733 0.00379,-0.029733 -0.00159,0 -0.00566,0.00622 -0.00975,0.013828 -0.00755,0.014866 -0.015098,0.019015 -0.011326,0.00588 0.00409,-0.014176 0.00347,-0.024894 -0.00159,-0.024894 -0.00316,0 -0.00503,0.00416 -0.00566,0.011066 -6.276e-4,0.00622 -0.00282,0.011405 -0.00472,0.011405 -0.00251,0 -0.00347,-0.00519 -0.00251,-0.015904 6.276e-4,-0.012096 0.00251,-0.016594 0.00692,-0.017632 0.00629,-0.00175 0.00723,-0.00691 0.00409,-0.016249 -0.00251,-0.00691 -0.00755,-0.00381 -0.00755,0.00484 0,0.00347 -0.00282,0.00726 -0.00598,0.00864 -0.00316,0.00105 -0.00661,0.00519 -0.00755,0.00899 -0.00282,0.011066 -0.00755,0.00484 -0.00598,-0.00761 9.553e-4,-0.0083 3.013e-4,-0.010375 -0.00282,-0.00933 -0.00251,6.898e-4 -0.00472,0.00588 -0.00535,0.010714 -9.554e-4,0.00864 -0.00692,0.013483 -0.00692,0.00588 0,-0.010023 0.00849,-0.031117 0.012268,-0.031117 0.00347,0 0.00378,-0.00105 0.00126,-0.00381 -0.00251,-0.00276 -0.00661,-0.00242 -0.015098,6.899e-4 -0.011006,0.0045 -0.011326,0.00519 -0.00944,0.017632 0.00159,0.010375 0.00126,0.013139 -0.00251,0.013139 -0.00282,0 -0.00535,-0.00347 -0.00598,-0.00795 -6.277e-4,-0.00553 -0.00282,-0.00726 -0.00818,-0.00657 -0.00378,6.899e-4 -0.00692,-6.899e-4 -0.00692,-0.00276 0,-0.00242 -0.00251,-0.0031 -0.00598,-0.00175 -0.00566,0.00175 -0.00598,6.9e-4 -0.0044,-0.010023 0.00159,-0.011066 9.554e-4,-0.012448 -0.00503,-0.012448 -0.00503,0 -0.00661,0.00207 -0.00661,0.00933 0,0.014176 -0.00566,0.00519 -0.00692,-0.011066 -0.00126,-0.016249 -0.00975,-0.019708 -0.011326,-0.0045 -6.277e-4,0.00553 -0.00251,0.00968 -0.0044,0.00968 -0.00188,0 -0.00251,-0.00519 -0.00188,-0.012096 0.00126,-0.011405 6.277e-4,-0.012096 -0.00755,-0.012096 -0.00535,0 -0.00975,-0.00242 -0.011955,-0.00691 -0.00188,-0.00381 -0.00535,-0.00691 -0.00755,-0.00691 -0.0022,0 -0.00786,-0.0031 -0.012582,-0.00726 -0.00472,-0.00416 -0.010377,-0.00622 -0.014156,-0.00484 -0.00755,0.00242 -0.022333,-0.00381 -0.022333,-0.00968 0,-0.00726 -0.014156,-0.013828 -0.029884,-0.013828 -0.011006,0 -0.01447,-0.00138 -0.016043,-0.00657 -0.00188,-0.00657 -0.00912,-0.0083 -0.012268,-0.00276 -0.00251,0.0045 -0.016357,0.0045 -0.018876,0 -9.554e-4,-0.00175 -0.00378,-0.00242 -0.00661,-0.00105 -0.00251,0.00105 -0.00818,-0.00175 -0.012581,-0.00622 -0.00598,-0.00622 -0.00912,-0.00726 -0.012898,-0.0045 -0.00629,0.00416 -0.02265,-0.00105 -0.031771,-0.010023 -0.00535,-0.00519 -0.00629,-0.00519 -0.012582,-3.311e-4 -0.00566,0.0045 -0.00818,0.0045 -0.011955,0.00138 -0.00723,-0.00691 -0.031771,-0.010714 -0.041523,-0.00657 -0.016356,0.00657 -0.017931,0.017287 -0.00629,0.042526 0.0022,0.0045 0.00188,0.00726 -9.554e-4,0.00933 -0.00347,0.00207 -0.00316,0.00416 0.00126,0.00933 0.00282,0.00347 0.00535,0.00968 0.00535,0.013483 0,0.00416 0.00566,0.025584 0.012898,0.048058 0.017301,0.056009 0.018558,0.061195 0.018558,0.071568 0,0.00519 0.00251,0.018325 0.00598,0.029042 0.00316,0.011066 0.00755,0.029388 0.00944,0.040796 0.0022,0.011405 0.011006,0.040105 0.019817,0.063961 0.00849,0.023857 0.0173,0.047711 0.018875,0.053589 0.010068,0.032153 0.021392,0.051514 0.050331,0.087125 0.00661,0.0083 0.011955,0.016594 0.011955,0.019014 0,0.00242 0.012268,0.018325 0.027054,0.035611 0.026424,0.030079 0.05788,0.069838 0.085249,0.1071788 0.00692,0.010023 0.017615,0.028004 0.023278,0.040105 0.030199,0.065344 0.044669,0.086088 0.069519,0.099572 0.016357,0.00899 0.022965,0.010714 0.043095,0.011066 0.013213,0 0.030829,0.00138 0.039635,0.0031 0.00849,0.00207 0.023592,0.0045 0.03303,0.00553 0.020448,0.00276 0.03303,0.00933 0.067318,0.034919 0.04687,0.035266 0.054736,0.042526 0.058195,0.052897 0.00188,0.00588 0.00535,0.010375 0.00849,0.010375 0.00282,0 0.012898,0.00484 0.022019,0.010714 0.015729,0.00968 0.016986,0.011405 0.016986,0.023511 0,0.00968 0.0022,0.015211 0.00944,0.022818 0.014156,0.014867 0.00849,0.016249 -0.01164,0.0031 -0.018873,-0.012448 -0.059767,-0.027659 -0.063229,-0.023857 -0.00126,0.00138 0.00849,0.013483 0.021392,0.026623 0.02265,0.023511 0.023278,0.024201 0.012581,0.02178 -0.00598,-0.00138 -0.016673,-0.00553 -0.023592,-0.00899 -0.00692,-0.00347 -0.021706,-0.00864 -0.03303,-0.011757 -0.011326,-0.0031 -0.022965,-0.00622 -0.026108,-0.00726 -0.00786,-0.00276 -0.00661,0.00519 0.00409,0.022818 0.010068,0.016594 0.00818,0.026967 -0.00251,0.016249 -0.00379,-0.00381 -0.014784,-0.00691 -0.032401,-0.00899 -0.02548,-0.00276 -0.027053,-0.00242 -0.043726,0.00726 -0.015098,0.00864 -0.021392,0.010023 -0.045928,0.010714 -0.022333,3.312e-4 -0.030199,-6.898e-4 -0.036804,-0.00553 -0.0044,-0.0031 -0.013841,-0.00588 -0.020448,-0.00588 -0.00755,0 -0.014157,-0.00207 -0.016673,-0.00553 -0.00282,-0.00381 -0.00723,-0.00484 -0.015098,-0.00347 -0.00629,0.00138 -0.013527,0.00207 -0.016043,0.00207 C 8.8902398,5.676934 8.8782859,5.675924 8.8641302,5.666927 8.8568969,5.662087 8.8446275,5.651716 8.8373923,5.644109 8.8273238,5.633395 8.8219775,5.630281 8.813484,5.630281 c -0.00692,0 -0.01164,-0.00207 -0.012898,-0.00553 -9.554e-4,-0.00276 -0.00347,-0.0045 -0.00598,-0.00345 -0.0022,0.00105 -0.00629,-0.00207 -0.00881,-0.00691 -0.00282,-0.0045 -0.00786,-0.0083 -0.011326,-0.0083 -0.00347,0 -0.00629,-0.00242 -0.00629,-0.00519 0,-0.00622 -0.00661,-0.00691 -0.011955,-0.00105 -0.00282,0.0031 -0.00378,0.00242 -0.00378,-0.0031 0,-0.00899 -0.00535,-0.013139 -0.014156,-0.012096 -0.00472,6.899e-4 -0.00755,-0.00207 -0.010068,-0.00968 -0.00316,-0.00933 -0.00472,-0.010375 -0.00975,-0.00726 -0.00503,0.0031 -0.00723,0.00207 -0.011006,-0.00416 -0.00472,-0.00761 -0.00472,-0.00761 -0.00975,-6.898e-4 -0.0044,0.00622 -0.00472,0.00657 -0.00503,6.898e-4 0,-0.00726 -0.012898,-0.033537 -0.016673,-0.033537 -0.00126,0 -0.0022,0.00242 -0.0022,0.00553 0,0.00726 -0.00598,0.00242 -0.00944,-0.00761 -0.0022,-0.00588 -0.00535,-0.0083 -0.011006,-0.0083 -0.0044,0 -0.00786,-0.00175 -0.00786,-0.00345 0,-0.00207 -0.00222,-0.00347 -0.00472,-0.00347 -0.00251,0 -0.011006,-0.00761 -0.018875,-0.016942 C 8.614051,5.486446 8.603353,5.477107 8.598319,5.474685 8.592339,5.471925 8.586679,5.465005 8.581962,5.454287 8.576932,5.443221 8.572842,5.438383 8.568436,5.438383 c -0.00379,0 -0.00786,-0.00381 -0.010377,-0.00968 C 8.555549,5.423173 8.5479917,5.41591 8.5398148,5.411761 8.532263,5.407601 8.5250306,5.401386 8.5240861,5.397585 8.5231308,5.394115 8.5181084,5.389635 8.5130805,5.387562 8.508049,5.385492 8.5023834,5.380992 8.500499,5.377539 c -0.00159,-0.00347 -0.00566,-0.00657 -0.00881,-0.00657 -0.00316,0 -0.00818,-0.0031 -0.011326,-0.00691 -0.00316,-0.00381 -0.00818,-0.00761 -0.01164,-0.00899 -0.00316,-0.00105 -0.00723,-0.00588 -0.00881,-0.010375 -0.0022,-0.00622 -0.00535,-0.0083 -0.012268,-0.0083 -0.00661,0 -0.011326,-0.0031 -0.017932,-0.012096 C 8.424993,5.317728 8.418707,5.311505 8.415557,5.31047 8.412737,5.30942 8.409267,5.30459 8.408327,5.300095 8.407067,5.294215 8.403927,5.291455 8.39763,5.290765 8.39165,5.290075 8.38882,5.287665 8.38819,5.282125 8.38693,5.273135 8.373406,5.260345 8.365225,5.260345 c -0.0044,0 -0.00598,-0.00244 -0.00598,-0.010375 0,-0.0083 -0.00126,-0.010375 -0.00661,-0.010375 -0.00347,0 -0.011006,-0.00553 -0.016673,-0.012096 -0.00598,-0.00657 -0.013526,-0.012096 -0.0173,-0.012096 -0.00409,0 -0.00661,-0.00207 -0.00661,-0.00553 0,-0.00381 -0.00159,-0.00484 -0.00503,-0.00347 -0.00409,0.00175 -0.00472,0 -0.00282,-0.011757 0.00188,-0.011405 0.00126,-0.013828 -0.00282,-0.013828 -0.00692,0 -0.020761,-0.010023 -0.020761,-0.015211 0,-0.00207 -0.0044,-0.00691 -0.00944,-0.010023 -0.00598,-0.00416 -0.00944,-0.00899 -0.00944,-0.014176 0,-0.0045 -0.00316,-0.010714 -0.00661,-0.014522 -0.00379,-0.00347 -0.00881,-0.011757 -0.011326,-0.017977 -0.0022,-0.00588 -0.00629,-0.011066 -0.00881,-0.011066 -0.00282,0 -0.00566,-0.0045 -0.00692,-0.010375 C 8.2271197,5.081588 8.223985,5.07502 8.221155,5.072602 8.218335,5.070182 8.213605,5.062579 8.210778,5.055315 8.207618,5.048405 8.203858,5.042522 8.201968,5.042522 c -0.00159,0 -0.00316,-0.00276 -0.00347,-0.00622 C 8.1981716,5.033202 8.191268,5.023509 8.182769,5.015211 L 8.1670578,5 8.1585688,5.00657 c -0.00472,0.00381 -0.010697,0.011757 -0.013212,0.017632 -0.00251,0.00588 -0.00755,0.011757 -0.011006,0.013483 -0.00347,0.00175 -0.00661,0.00726 -0.00723,0.012448 -6.276e-4,0.00553 -0.00282,0.00968 -0.00503,0.00968 -0.0022,0 -0.00503,0.00657 -0.00692,0.014521 -0.00251,0.013483 -0.00379,0.014866 -0.011955,0.014866 -0.00503,3.312e-4 -0.010068,0.00242 -0.010697,0.00519 -9.554e-4,0.00276 -0.00503,0.00795 -0.00944,0.012096 -0.0044,0.00381 -0.014156,0.013483 -0.022019,0.021435 -0.00786,0.0083 -0.016357,0.014866 -0.01919,0.014866 -0.00629,0 -0.021392,0.020397 -0.023908,0.032153 -0.00126,0.00553 -0.00535,0.010023 -0.011006,0.012096 -0.00472,0.00207 -0.00975,0.00691 -0.011006,0.010714 -9.553e-4,0.00416 -0.00692,0.00968 -0.012581,0.012096 -0.011955,0.00553 -0.046556,0.032845 -0.048443,0.038377 -6.277e-4,0.00175 -0.00944,0.012448 -0.019503,0.023508 -0.00975,0.011066 -0.018872,0.022474 -0.019817,0.02524 -9.553e-4,0.00242 -0.00881,0.00899 -0.017301,0.014176 -0.026739,0.016594 -0.042781,0.053589 -0.031143,0.071221 0.00316,0.0045 0.011326,0.00622 0.037119,0.00795 0.020448,0.00105 0.038378,0.00416 0.047186,0.0083 0.00786,0.00347 0.01919,0.00726 0.025166,0.00864 0.016356,0.00381 0.050645,0.029733 0.072666,0.05428 0.019503,0.022474 0.051275,0.068456 0.048758,0.071222 -9.553e-4,6.899e-4 -0.00629,-0.00242 -0.011955,-0.00726 -0.00566,-0.00484 -0.014784,-0.010023 -0.019818,-0.011066 -0.00881,-0.00242 -0.00786,-0.00105 0.011006,0.020743 0.011326,0.012793 0.017617,0.022128 0.014156,0.020746 -0.022019,-0.00933 -0.028941,-0.011757 -0.033973,-0.012096 -0.00975,0 -0.00566,0.00553 0.011006,0.015559 0.016986,0.010023 0.016356,0.015559 -0.00126,0.00899 -0.013527,-0.00519 -0.014784,-0.00484 -0.012898,0.0031 9.553e-4,0.00381 0,0.00691 -0.00188,0.00691 -0.00188,0 -0.00347,-0.00207 -0.00347,-0.0045 0,-0.00242 -0.00598,-0.00691 -0.013213,-0.010375 -0.011326,-0.00553 -0.017931,-0.00622 -0.049387,-0.00381 -0.046872,0.0031 -0.045928,0.0031 -0.067947,-0.00175 -0.039635,-0.0083 -0.072036,-0.011405 -0.081788,-0.00761 -0.00535,0.00207 -0.023907,0.0031 -0.041523,0.00242 -0.022019,-0.00105 -0.032401,0 -0.033345,0.00276 -9.554e-4,0.00242 -0.00378,0.00138 -0.00786,-0.00276 -0.00503,-0.00484 -0.011326,-0.00657 -0.023908,-0.00622 -0.012898,0 -0.018558,-0.00138 -0.022333,-0.00622 -0.00282,-0.00347 -0.00975,-0.00761 -0.015415,-0.00899 -0.015098,-0.00347 -0.026424,-0.011066 -0.028625,-0.019015 -0.00126,-0.00381 -0.00503,-0.010375 -0.00818,-0.013828 -0.00316,-0.00347 -0.00598,-0.00968 -0.00598,-0.013139 0,-0.00381 -0.00159,-0.00795 -0.00316,-0.00899 -0.00188,-0.00105 -0.00316,-0.0083 -0.00316,-0.015904 0,-0.013139 -0.00818,-0.027312 -0.01573,-0.027312 -0.00188,0 -0.00316,-0.00207 -0.00316,-0.00484 0,-0.00242 -0.0022,-0.00657 -0.00472,-0.00899 -0.00251,-0.00242 -0.00472,-0.00795 -0.00472,-0.012793 0,-0.0045 -0.0022,-0.00899 -0.00472,-0.010023 -0.00251,-0.00138 -0.00472,-0.00588 -0.00472,-0.010714 0,-0.00484 -0.00409,-0.012793 -0.00944,-0.019015 -0.00535,-0.00553 -0.00944,-0.013483 -0.00944,-0.017287 0,-0.011405 -0.010377,-0.033191 -0.016356,-0.034919 -0.00472,-0.00138 -0.00503,-0.0031 -0.00188,-0.012794 C 7.5507708,5.293128 7.5507708,5.290011 7.547633,5.28794 7.542603,5.28447 7.535051,5.260628 7.538193,5.258551 7.539453,5.257861 7.541353,5.249221 7.541973,5.239536 7.543233,5.227088 7.546693,5.217408 7.553613,5.206691 7.559593,5.197701 7.56399,5.186294 7.564619,5.178341 7.565879,5.162782 7.572479,5.146187 7.58538,5.127172 7.59041,5.119562 7.5945,5.10954 7.59419,5.104698 7.5938637,5.099858 7.59859,5.0843 7.604887,5.070123 7.610867,5.055947 7.618414,5.037625 7.62156,5.029671 7.62472,5.021721 7.62974,5.012384 7.632886,5.009273 c 0.00347,-0.00347 0.00598,-0.010023 0.00598,-0.014867 3.265e-4,-0.00899 0.00881,-0.03976 0.01384,-0.048058 0.00126,-0.00242 0.00159,-0.010375 3.264e-4,-0.017287 -0.00188,-0.011757 -0.00251,-0.012096 -0.00629,-0.00622 -0.00316,0.0045 -0.00661,0.00588 -0.011955,0.00416 -0.00408,-0.00105 -0.00849,-0.00105 -0.00943,3.312e-4 -0.00126,0.00105 -0.010377,0.00242 -0.020133,0.0031 -0.010068,3.311e-4 -0.027997,0.00175 -0.039951,0.00242 -0.012581,0.00105 -0.025166,0 -0.029569,-0.00207 -0.00629,-0.0031 -0.00818,-0.00276 -0.01164,0.00207 -0.00347,0.00519 -0.0044,0.00553 -0.00786,6.898e-4 -0.00472,-0.00622 -0.017931,-0.00691 -0.019503,-0.00105 -9.554e-4,0.0031 -0.00282,0.00276 -0.00692,-0.00175 -0.00692,-0.00726 -0.011326,-0.00761 -0.011326,-3.312e-4 0,0.00347 -0.00188,0.00484 -0.0044,0.00381 -0.00251,-0.00105 -0.00692,3.312e-4 -0.010377,0.00276 -0.00755,0.00657 -0.016673,0.00657 -0.023278,-3.313e-4 -0.0044,-0.00416 -0.00692,-0.0045 -0.011955,-0.00138 -0.00378,0.00207 -0.00661,0.00622 -0.00661,0.00933 0,0.0045 -9.554e-4,0.00484 -0.00378,0.00175 -0.00535,-0.00588 -0.011955,-0.00519 -0.011955,0.00105 0,0.00657 -0.0044,0.00657 -0.00944,0 -0.00661,-0.00864 -0.00975,-0.00588 -0.00755,0.00691 0.00251,0.014866 0,0.015559 -0.00661,0.00175 -0.00282,-0.00553 -0.00629,-0.010375 -0.00818,-0.010375 -0.00222,0 -0.00251,0.00381 -0.00126,0.010375 0.00159,0.00795 9.553e-4,0.010375 -0.00251,0.010375 -0.00477,0 -0.00853,-0.010023 -0.00853,-0.023511 0,-0.00864 -9.553e-4,-0.00899 -0.00912,-0.00416 -0.00409,0.00207 -0.00535,0.00588 -0.0044,0.012096 9.554e-4,0.00519 3.266e-4,0.00864 -0.00188,0.00864 -0.00188,0 -0.00347,-0.00207 -0.00347,-0.0045 0,-0.00276 -0.00378,-0.0083 -0.00818,-0.013139 l -0.00849,-0.0083 0.00188,0.014521 c 0.00159,0.014866 -0.00251,0.020397 -0.00629,0.00899 -0.00378,-0.012448 -0.011326,-0.018325 -0.02265,-0.018325 -0.014471,0 -0.021706,0.00484 -0.017301,0.011066 0.00188,0.00242 0.00598,0.020743 0.00912,0.040798 0.00316,0.020053 0.00692,0.039068 0.00849,0.042525 0.0022,0.00484 0.00159,0.00761 -0.00251,0.010714 -0.0044,0.00381 -0.00503,0.00795 -0.00347,0.024201 9.554e-4,0.010714 6.278e-4,0.019363 -9.553e-4,0.019363 -0.00222,0 -0.00126,0.00553 0.00629,0.029388 9.553e-4,0.00381 6.276e-4,0.013139 -6.278e-4,0.020743 -0.00159,0.00761 -0.00409,0.028696 -0.00566,0.046675 -0.00159,0.017977 -0.00472,0.03976 -0.00661,0.048403 -0.00347,0.014522 -0.00535,0.039068 -0.00723,0.088163 -0.00188,0.04218 -0.00566,0.07779 -0.00849,0.075716 -0.00566,-0.00381 -0.00251,0.014866 0.00598,0.032845 0.00629,0.014522 0.010697,0.019708 0.017931,0.02178 0.00503,0.00175 0.03775,0.00416 0.072666,0.00588 0.081474,0.00416 0.1195366,0.012096 0.1308612,0.026967 0.00188,0.00276 0.017931,0.012448 0.035231,0.022126 0.017618,0.00968 0.034288,0.020745 0.037434,0.024546 0.00316,0.00416 0.00881,0.00933 0.012268,0.011066 0.00723,0.00416 0.02265,0.034574 0.020761,0.040796 -6.278e-4,0.00207 -0.0044,-0.00175 -0.00849,-0.00864 -0.00379,-0.00691 -0.00912,-0.012793 -0.01164,-0.012793 -0.00598,0 -0.00566,0.011757 6.278e-4,0.017632 0.00629,0.00553 0.014784,0.023857 0.011326,0.023857 -0.00159,0 -0.00535,-0.00345 -0.00881,-0.00726 -0.00755,-0.00968 -0.026424,-0.018325 -0.030199,-0.014176 -0.00159,0.00175 6.276e-4,0.0083 0.00535,0.015904 0.01164,0.019015 0.00692,0.019708 -0.00881,0.00175 -0.00755,-0.00864 -0.015098,-0.015211 -0.017301,-0.014176 -0.00535,0.00175 -0.00472,0.014867 0.00126,0.024201 0.00598,0.00933 0.00159,0.010024 -0.00912,6.899e-4 -0.00881,-0.00761 -0.021392,-0.00899 -0.031143,-0.0031 -0.00629,0.00381 -0.00629,0.00381 9.554e-4,0.012096 0.00912,0.010714 0.00126,0.011757 -0.010697,0.00138 -0.00503,-0.0045 -0.00881,-0.00553 -0.010069,-0.00347 -9.553e-4,0.00175 -0.00786,0.00347 -0.014784,0.00347 -0.00881,0 -0.016043,0.00276 -0.02265,0.0083 -0.00944,0.00761 -0.025795,0.012793 -0.042781,0.012793 -0.03649,3.312e-4 -0.054106,-6.899e-4 -0.060712,-0.00416 -0.00629,-0.0031 -0.011006,-0.00276 -0.022333,0.00138 -0.00786,0.0031 -0.014471,0.00381 -0.014471,0.00207 0,-0.00175 -0.00347,-0.00244 -0.00786,-0.00105 -0.0044,0.00105 -0.013212,-3.313e-4 -0.020133,-0.0031 -0.013527,-0.00622 -0.067317,-0.013483 -0.090282,-0.012448 -0.049387,0.00207 -0.1126155,-0.00553 -0.1229969,-0.014866 -0.0022,-0.00207 -0.00598,-0.00276 -0.00881,-0.00175 -0.00251,0.00138 -0.00598,-3.312e-4 -0.00755,-0.00381 -0.00251,-0.00484 -0.00378,-0.00519 -0.00692,-0.00138 -0.0022,0.00207 -0.00692,0.00381 -0.010697,0.00381 -0.00503,-3.313e-4 -0.00535,-6.899e-4 -9.554e-4,-0.00207 0.00755,-0.00207 0.00723,-0.00761 -0.00159,-0.029389 -0.00818,-0.020053 -0.018558,-0.037685 -0.030513,-0.051861 -0.0044,-0.00484 -0.016986,-0.021781 -0.027996,-0.036994 -0.014471,-0.019708 -0.022333,-0.028004 -0.027367,-0.028004 -0.00472,0 -0.00723,-0.00276 -0.00849,-0.00968 -0.00188,-0.010714 -0.013526,-0.026277 -0.022019,-0.029389 -0.00314,-0.00138 -0.00472,-0.00416 -0.00378,-0.00622 0.00126,-0.00175 0,-0.00622 -0.00251,-0.00933 -0.00251,-0.0031 -0.00629,-0.011066 -0.00881,-0.017287 -0.00251,-0.00622 -0.00692,-0.012096 -0.00975,-0.013139 -0.00282,-0.00105 -0.00881,-0.00622 -0.012898,-0.011405 -0.00409,-0.00553 -0.010377,-0.011757 -0.014157,-0.013828 -0.00378,-0.00207 -0.00692,-0.00622 -0.00692,-0.00899 0,-0.00657 -0.00282,-0.00657 -0.00975,3.313e-4 -0.00503,0.00519 -0.00598,0.00416 -0.01164,-0.010375 -0.00472,-0.011066 -0.00881,-0.016249 -0.014784,-0.017977 -0.00723,-0.00207 -0.00786,-0.00347 -0.00629,-0.012096 0.0022,-0.011405 0,-0.012448 -0.00849,-0.00416 -0.00566,0.00553 -0.00692,0.00553 -0.014471,6.899e-4 -0.00629,-0.00381 -0.00881,-0.00864 -0.010069,-0.018669 -0.00126,-0.012096 -0.00282,-0.014176 -0.010697,-0.015559 -0.00503,-0.00105 -0.010068,-0.0045 -0.011006,-0.00761 -9.553e-4,-0.0031 -0.00786,-0.010714 -0.015415,-0.016594 -0.00723,-0.00588 -0.015098,-0.014521 -0.016986,-0.019014 -0.00188,-0.00484 -0.00535,-0.00864 -0.00755,-0.00864 -0.0022,0 -0.00566,-0.0031 -0.00786,-0.00726 -0.00282,-0.00588 -0.00535,-0.00691 -0.014157,-0.00519 -0.00944,0.00207 -0.011955,6.898e-4 -0.021706,-0.010024 -0.00629,-0.00657 -0.016673,-0.015904 -0.023278,-0.020743 -0.00661,-0.0045 -0.015415,-0.013828 -0.01919,-0.020745 -0.00598,-0.010714 -0.00849,-0.012448 -0.016043,-0.011405 -0.00755,0.00138 -0.00912,3.312e-4 -0.00912,-0.00588 0,-0.00588 -0.0044,-0.010024 -0.020133,-0.018669 -0.011006,-0.00588 -0.022965,-0.010714 -0.027053,-0.010714 -0.00566,0 -0.00661,0.00138 -0.00472,0.00968 0.00126,0.00726 -3.266e-4,0.013139 -0.00598,0.022126 -0.00409,0.00691 -0.00818,0.016942 -0.00881,0.022474 -6.278e-4,0.00795 -0.0022,0.00933 -0.00818,0.00864 -0.00629,-0.00105 -0.00692,3.313e-4 -0.00692,0.012793 0,0.010375 -0.00159,0.014866 -0.00629,0.017632 -0.00347,0.00207 -0.00944,0.010714 -0.013212,0.019708 -0.00409,0.00864 -0.00881,0.015905 -0.010377,0.015559 -0.00472,-3.313e-4 -0.014156,0.010023 -0.014156,0.015559 0,0.00244 -0.00347,0.0045 -0.00818,0.0045 -0.00818,0 -0.026424,0.016594 -0.026424,0.024201 0,0.00242 -0.00251,0.0031 -0.00629,0.00175 -0.00472,-0.00175 -0.00912,6.898e-4 -0.01573,0.00864 -0.00692,0.0083 -0.01164,0.010714 -0.016986,0.00968 -0.00472,-0.00105 -0.00849,6.899e-4 -0.011006,0.00484 -0.00378,0.00657 -0.016043,0.00864 -0.016043,0.00276 0,-0.00207 -0.00159,-0.00347 -0.00316,-0.00347 -0.00188,0 -0.00314,0.00276 -0.00314,0.00657 0,0.00795 -0.015098,0.015211 -0.02548,0.012448 -0.00566,-0.00138 -0.00944,0 -0.013527,0.00484 -0.00347,0.00416 -0.00881,0.00726 -0.011955,0.00726 -0.00347,0 -0.00912,0.00175 -0.012581,0.00381 -0.01447,0.0083 -0.055679,0.018325 -0.079586,0.019014 -0.057881,0.00175 -0.085878,0.010024 -0.1044372,0.031117 -0.00755,0.0083 -0.014785,0.015211 -0.016674,0.015211 -0.00159,0 -0.00318,0.00622 -0.00318,0.013483 0,0.010375 0.0022,0.016249 0.00849,0.023857 0.013214,0.015211 0.026741,0.020053 0.070464,0.025929 0.035861,0.00484 0.042781,0.00691 0.068891,0.020745 0.02265,0.012448 0.027682,0.013828 0.023278,0.0083 -0.00316,-0.00416 0.0044,0.00276 0.016356,0.015559 0.011955,0.012793 0.029256,0.03077 0.038692,0.03976 0.015098,0.014866 0.028312,0.036993 0.024536,0.041488 -9.554e-4,6.898e-4 -0.00566,-0.00276 -0.010377,-0.00795 -0.00975,-0.00968 -0.026424,-0.022128 -0.030513,-0.022128 -0.00566,0 -0.00126,0.012793 0.00849,0.024201 0.00598,0.00657 0.011955,0.016594 0.013212,0.022474 0.0022,0.010023 0.00188,0.010023 -0.00378,0.0045 -0.00598,-0.00588 -0.020448,-0.013139 -0.035232,-0.017977 -0.011326,-0.00416 -0.00849,0.00588 0.00598,0.018325 0.00692,0.00622 0.011955,0.012096 0.011326,0.012791 -6.276e-4,0.00105 -0.012268,-0.00175 -0.025795,-0.00588 -0.013526,-0.00381 -0.027996,-0.00622 -0.032716,-0.00519 -0.027368,0.00622 -0.038377,0.00899 -0.05442,0.014522 -0.016356,0.00553 -0.021706,0.00553 -0.053792,0.00138 -0.045928,-0.00588 -0.109156,-0.00207 -0.109156,0.00622 0,0.0045 -9.645e-4,0.00416 -0.00471,-0.00138 -0.00336,-0.0048 -0.00432,-0.00516 -0.0046,-0.00135 0,0.0031 -9.644e-4,0.00381 -0.0025,0.00138 -0.00284,-0.0045 -0.027995,-0.018669 -0.033342,-0.018669 -0.00218,0 -0.00598,-0.00242 -0.00818,-0.00519 -0.00723,-0.00968 -0.077699,-0.063961 -0.1060098,-0.081594 -0.00881,-0.00588 -0.017932,-0.012793 -0.019816,-0.015212 -0.00218,-0.00276 -0.00723,-0.00519 -0.011326,-0.00519 -0.00565,0 -0.00723,-0.00175 -0.00692,-0.00968 3.26e-4,-0.00519 -0.00156,-0.015212 -0.00345,-0.022128 -0.00282,-0.010024 -0.00311,-0.020745 -3.265e-4,-0.046675 0.00184,-0.018669 0.00409,-0.041143 0.00472,-0.050477 6.334e-4,-0.00899 0.00184,-0.017632 0.00311,-0.01936 9.826e-4,-0.00175 0.00311,-0.011066 0.00472,-0.020745 0.00161,-0.010024 0.00786,-0.025584 0.014156,-0.035611 0.00598,-0.010023 0.011006,-0.020745 0.011006,-0.023511 0,-0.011405 0.015727,-0.04149 0.026738,-0.050823 0.00692,-0.00621 0.012272,-0.014507 0.014472,-0.022804 0.00156,-0.00726 0.00661,-0.016594 0.011006,-0.020742 0.00849,-0.00795 0.025482,-0.042526 0.030199,-0.061195 0.00248,-0.010023 0.00881,-0.038722 0.017299,-0.07952 9.827e-4,-0.00484 0.0038,-0.011405 0.00661,-0.014521 0.0038,-0.00484 0.0038,-0.00726 9.826e-4,-0.011066 -0.00317,-0.00416 -0.00218,-0.00864 0.00409,-0.023511 0.00661,-0.015212 0.00723,-0.019015 0.0038,-0.021781 -0.0038,-0.0031 -0.0038,-0.00519 -3.266e-4,-0.012096 0.00248,-0.00484 0.005,-0.023511 0.00629,-0.041488 9.827e-4,-0.017977 0.0038,-0.047711 0.00629,-0.06569 0.0072,-0.054627 0.00751,-0.057738 0.00438,-0.061195 -0.00187,-0.00207 -0.00187,-0.00691 3.265e-4,-0.012793 0.00159,-0.00519 0.00312,-0.024201 0.00312,-0.04218 0,-0.023511 0.00159,-0.035957 0.00503,-0.043562 0.00975,-0.020743 0.025165,-0.088508 0.028942,-0.1272308 0.00159,-0.015559 0.00503,-0.026967 0.011006,-0.037339 0.0047,-0.00795 0.00944,-0.019708 0.010697,-0.025929 9.645e-4,-0.00622 0.00598,-0.024894 0.010697,-0.042181 0.00503,-0.016942 0.00912,-0.033881 0.00912,-0.038032 0,-0.00864 0.00755,-0.032845 0.016044,-0.050824 0.00598,-0.012793 0.00598,-0.014521 0.00159,-0.017287 -0.00284,-0.00175 -0.00849,-0.00968 -0.012897,-0.017977 -0.010389,-0.01936 -0.010389,-0.048058 0,-0.071221 0.00379,-0.00864 0.00944,-0.023511 0.012268,-0.032845 0.00283,-0.00968 0.010697,-0.025929 0.017616,-0.035956 0.00691,-0.010024 0.014157,-0.024546 0.016362,-0.032499 0.0022,-0.00795 0.00944,-0.020398 0.015727,-0.027311 0.00661,-0.00726 0.011956,-0.014866 0.011956,-0.016942 0,-0.00207 0.00944,-0.014176 0.020763,-0.026967 0.01164,-0.012448 0.025166,-0.029388 0.030199,-0.037685 0.00503,-0.00795 0.010377,-0.014521 0.011955,-0.014521 0.00159,0 0.00503,-0.0045 0.00755,-0.010023 0.00535,-0.011066 0.037434,-0.048748 0.041524,-0.048748 0.00159,0 0.00661,-0.00691 0.011326,-0.014866 0.019817,-0.033537 0.025166,-0.040452 0.044984,-0.059121 0.011326,-0.010714 0.022019,-0.01936 0.023278,-0.01936 0.00126,0 0.00692,-0.00795 0.012268,-0.017287 0.00629,-0.011066 0.011955,-0.017287 0.01573,-0.017287 0.00347,0 0.011006,-0.00622 0.016673,-0.013483 0.00598,-0.00726 0.013527,-0.016942 0.017301,-0.021435 0.00347,-0.0045 0.011006,-0.011405 0.016986,-0.015211 0.00566,-0.00381 0.016986,-0.011066 0.024853,-0.016249 0.00786,-0.00519 0.020131,-0.012793 0.027053,-0.016942 0.00692,-0.00416 0.013526,-0.00933 0.014784,-0.011757 0.00126,-0.00242 0.00629,-0.00553 0.011006,-0.00691 0.00472,-0.00105 0.011955,-0.00484 0.016356,-0.0083 0.0044,-0.0031 0.018875,-0.011066 0.031771,-0.017288 0.012894,-0.00623 0.028621,-0.014177 0.034599,-0.017633 0.00598,-0.0031 0.01478,-0.00691 0.019184,-0.00829 0.00472,-0.00105 0.00912,-0.00519 0.010069,-0.00899 0.00126,-0.00553 0.00409,-0.00691 0.014156,-0.00691 0.00818,0 0.013213,-0.00175 0.014471,-0.00519 9.554e-4,-0.00276 0.00566,-0.00519 0.010377,-0.00519 0.00503,0 0.016043,-0.00416 0.024536,-0.00933 0.016673,-0.00968 0.090596,-0.039068 0.098146,-0.039068 0.00251,0 0.00849,-0.0031 0.013527,-0.00691 0.014155,-0.011066 0.057879,-0.020744 0.1163884,-0.026277 0.012898,-0.00105 0.039006,-0.00553 0.058195,-0.010375 0.04404,-0.010375 0.094371,-0.012448 0.1620039,-0.00622 0.028625,0.00242 0.066059,0.00553 0.083361,0.00657 0.017301,0.00105 0.04058,0.00484 0.051904,0.00864 0.011326,0.00347 0.026109,0.00761 0.03303,0.00864 0.00692,0.00138 0.027367,0.00519 0.045612,0.00933 0.018245,0.00381 0.046556,0.00968 0.062914,0.013139 0.016357,0.00347 0.039635,0.0083 0.051905,0.010375 0.011955,0.00242 0.039006,0.0083 0.059768,0.012793 0.060083,0.013828 0.1940899,0.020053 0.234355,0.011066 0.00944,-0.00207 0.023592,-0.00416 0.031457,-0.0045 0.018559,-0.00138 0.06197,-0.014522 0.072036,-0.02178 0.015098,-0.011066 0.029884,-0.018325 0.037118,-0.018325 0.00755,0 0.011955,-0.00553 0.011955,-0.015212 0,-0.00416 0.00251,-0.00691 0.00629,-0.00726 0.00975,-0.00105 0.020448,-0.00553 0.020448,-0.00864 0,-0.00175 0.00661,-0.00553 0.014784,-0.00899 0.00849,-0.00347 0.016986,-0.00899 0.01919,-0.012096 0.0022,-0.00347 0.00629,-0.00622 0.00944,-0.00622 0.010069,0 0.024223,-0.00484 0.029569,-0.00968 0.00347,-0.00345 0.00849,-0.0045 0.014784,-0.00276 0.00818,0.00207 0.00975,0.00138 0.00975,-0.0045 0,-0.00588 0.00282,-0.00726 0.022333,-0.00933 0.018559,-0.00207 0.02265,-0.00381 0.024223,-0.00933 9.553e-4,-0.00484 0.00347,-0.00622 0.00786,-0.00484 0.00379,0.00105 0.00849,0 0.011006,-0.00242 0.0044,-0.00381 0.011326,-0.00519 0.046242,-0.00761 0.010377,-6.899e-4 0.025166,-0.00276 0.03303,-0.00484 0.010697,-0.00242 0.016673,-0.00207 0.024853,0.00175 0.00598,0.00276 0.013526,0.00416 0.016673,0.00276 0.00347,-0.00105 0.017931,-0.00207 0.032716,-0.00175 0.020448,0 0.027053,-0.00138 0.028625,-0.00519 0.0022,-0.00657 0.00472,-0.00622 0.012898,0.00276 z"
       id="path88"
       style="fill:#000000;stroke:none;stroke-width:0.000329786" />
  </g>
</svg>
