<?xml version="1.0" encoding="UTF-8" standalone="no"?>
<svg
   xmlns:dc="http://purl.org/dc/elements/1.1/"
   xmlns:cc="http://creativecommons.org/ns#"
   xmlns:rdf="http://www.w3.org/1999/02/22-rdf-syntax-ns#"
   xmlns:svg="http://www.w3.org/2000/svg"
   xmlns="http://www.w3.org/2000/svg"
   xmlns:sodipodi="http://sodipodi.sourceforge.net/DTD/sodipodi-0.dtd"
   xmlns:inkscape="http://www.inkscape.org/namespaces/inkscape"
   width="16.0px"
   height="16.0px"
   viewBox="0 0 16.0 16.0"
   version="1.1"
   id="SVGRoot"
   sodipodi:docname="finHubLogo.svg"
   inkscape:version="1.0.1 (3bc2e813f5, 2020-09-07)">
  <defs
     id="defs10">
    <inkscape:path-effect
       effect="spiro"
       id="path-effect42"
       is_visible="true"
       lpeversion="1" />
    <inkscape:path-effect
       effect="spiro"
       id="path-effect38"
       is_visible="true"
       lpeversion="1" />
  </defs>
  <sodipodi:namedview
     id="base"
     pagecolor="#ffffff"
     bordercolor="#666666"
     borderopacity="1.0"
     inkscape:pageopacity="0.0"
     inkscape:pageshadow="2"
     inkscape:zoom="22.4"
     inkscape:cx="10.780296"
     inkscape:cy="8.0879909"
     inkscape:document-units="px"
     inkscape:current-layer="layer1"
     inkscape:document-rotation="0"
     showgrid="true"
     inkscape:window-width="1920"
     inkscape:window-height="1017"
     inkscape:window-x="1912"
     inkscape:window-y="-8"
     inkscape:window-maximized="1">
    <inkscape:grid
       type="xygrid"
       id="grid19" />
  </sodipodi:namedview>
  <metadata
     id="metadata13">
    <rdf:RDF>
      <cc:Work
         rdf:about="">
        <dc:format>image/svg+xml</dc:format>
        <dc:type
           rdf:resource="http://purl.org/dc/dcmitype/StillImage" />
        <dc:title />
      </cc:Work>
    </rdf:RDF>
  </metadata>
  <g
     inkscape:label="Layer 1"
     inkscape:groupmode="layer"
     id="layer1">
    <circle
       style="fill:#008000;fill-rule:evenodd;stroke-width:1.23443"
       id="path26"
       cx="8"
       cy="8"
       r="8" />
    <path
       style="fill:none;stroke:#000000;stroke-width:0.0327229px;stroke-linecap:butt;stroke-linejoin:miter;stroke-opacity:1"
       d="M 8,16 C 6.9528321,15.999953 5.912131,15.56884 5.171688,14.828364 4.431245,14.087888 4.0001781,13.047168 4.0001781,12 4.0001781,10.952832 4.431245,9.9121117 5.171688,9.1716356 5.912131,8.4311596 6.9528321,8.0000464 8,7.9999997 c 3.567e-4,0 7.133e-4,0 0.00107,0 1.0470935,-4.67e-5 2.0877,-0.4312675 2.827964,-1.1718176 0.740264,-0.7405502 1.171077,-1.7812932 1.170877,-2.8283867 -2e-4,-1.0470935 -0.431393,-2.0876469 -1.171828,-2.8280261 C 10.087649,0.43139006 9.0470935,2.7998965e-4 8,0 7.9992867,-1.9074318e-7 7.9985733,-1.9074318e-7 7.99786,0"
       id="path40"
       inkscape:path-effect="#path-effect42"
       inkscape:original-d="m 8,16 c 1.1e-6,-2.665667 1.1e-6,-5.332333 0,-8.0000003 -1.1e-6,-2.6676666 7.154e-4,9.938e-4 0.00107,0 C 8.0014269,7.9990059 8.000358,2.6676668 8,0 7.9996417,-2.6676667 7.99857,9.9970309e-4 7.99786,0" />
    <path
       style="fill:#008000;stroke-width:0.0223214"
       d="M 6.5927555,15.863865 C 3.5166124,15.307201 1.0439204,13.0108 0.26301223,9.9854003 0.17744928,9.6539117 0.09323747,9.1854468 0.04957543,8.7980651 0.00660841,8.4168497 0.0126602,7.4985358 0.06075508,7.1016365 0.24892953,5.5487412 0.81776737,4.1969258 1.8029754,2.9613342 2.0397454,2.6643909 2.6817441,2.0246984 2.9878447,1.780721 4.1424084,0.86047677 5.5230072,0.26744353 6.9409785,0.08266084 7.8496702,-0.03575515 8.5433584,0.00889659 9.2373845,0.2304773 9.5287979,0.3235164 10.053777,0.5893754 10.320434,0.77895371 10.593476,0.97307103 11.026782,1.4068028 11.218128,1.6775293 11.673621,2.3219847 11.930227,3.066184 11.9647,3.8427079 12.03485,5.4229702 11.112454,6.9360079 9.6763501,7.5963512 9.1562492,7.8355017 8.5547818,7.9714851 8.0148669,7.9719892 6.9044291,7.9730249 5.7906548,8.4600782 5.0430026,9.2715829 4.789618,9.5466077 4.6025423,9.8202802 4.4206689,10.181994 c -0.2905128,0.577777 -0.4115445,1.04296 -0.4326661,1.662946 -0.015088,0.442885 0.011269,0.718413 0.105729,1.10524 0.3432007,1.40546 1.3825348,2.491671 2.7892022,2.915005 0.15075,0.04537 0.158525,0.05032 0.078125,0.04978 -0.049107,-3.33e-4 -0.2148437,-0.02333 -0.3683035,-0.0511 z"
       id="path44" />
    <path
       style="fill:#ff0000;stroke-width:0.0223214"
       d="M 6.6262376,15.8712 C 3.6285668,15.339035 1.2112465,13.178706 0.33517674,10.248958 -0.12514648,8.7095474 -0.08827444,6.9574655 0.43664228,5.4275293 1.2134488,3.1634284 2.9638403,1.3597633 5.1999077,0.51929259 5.9482171,0.23802556 6.7005648,0.0798925 7.5461782,0.02613913 8.5188195,-0.03568907 9.4154104,0.18968435 10.186505,0.68983049 11.405186,1.4802886 12.113382,2.9755557 11.948944,4.4109999 11.756096,6.0944429 10.584259,7.4422146 8.9588269,7.8500407 8.6402994,7.9299601 8.4985613,7.94822 8.0112794,7.9721104 7.3333334,8.0053488 6.9377106,8.0879331 6.4347182,8.3012099 5.2999244,8.7823805 4.4793383,9.7105048 4.1348048,10.902528 c -0.097826,0.338461 -0.1336404,0.576127 -0.1470589,0.975894 -0.022362,0.66622 0.097559,1.239784 0.3872147,1.851988 0.4711444,0.99579 1.3047087,1.727233 2.3799652,2.088391 0.3361705,0.112913 0.2985259,0.128241 -0.1286882,0.0524 z"
       id="path46" />
    <path
       d="M 8.0002422,9.3826725 C 7.8856697,9.4408017 7.8418639,9.5970722 7.8907249,9.771039 c 0.042121,0.1512171 0.1482701,0.295275 0.2847449,0.387522 0.021479,0.01474 0.039178,0.02822 0.039595,0.02992 0,0.0018 -0.00677,0.0062 -0.01516,0.0097 -0.019373,0.008 -0.034123,0.0058 -0.1019369,-0.01558 -0.075819,-0.02401 -0.09688,-0.02148 -0.1061479,0.0131 -0.00927,0.03496 0.014325,0.0636 0.084245,0.103618 0.019798,0.01099 0.049283,0.02781 0.065288,0.03707 0.033696,0.01895 0.074556,0.05601 0.082138,0.07413 0.00462,0.01099 0.00337,0.01474 -0.016431,0.04717 -0.046333,0.07751 -0.082137,0.171017 -0.097722,0.258628 -0.00759,0.04043 -0.00927,0.06739 -0.00968,0.138583 -4.351e-4,0.08972 0.00249,0.120475 0.019373,0.213979 0.010534,0.05772 0.00927,0.07499 -0.015587,0.188285 -0.00801,0.0358 -0.021904,0.09983 -0.031166,0.141949 -0.024009,0.109931 -0.030745,0.158379 -0.030328,0.228722 0,0.07666 0.00843,0.121731 0.033279,0.18323 l 0.00843,0.02148 -0.021904,0.01146 c -0.012218,0.0062 -0.03454,0.0219 -0.049283,0.03455 -0.063606,0.05266 -0.100251,0.120477 -0.1507973,0.280113 -0.014325,0.04507 -0.02991,0.09393 -0.034959,0.108668 -0.00462,0.01433 -0.035803,0.08256 -0.069081,0.151639 -0.1166781,0.239676 -0.1381601,0.276321 -0.216086,0.36941 -0.1482702,0.176493 -0.1482702,0.176493 -0.2565242,0.265369 -0.08972,0.0733 -0.1208901,0.11331 -0.1259442,0.163855 -0.00213,0.02065 -8.071e-4,0.02696 0.010955,0.05097 0.014325,0.02864 0.030328,0.04466 0.063607,0.06276 0.068237,0.03707 0.1924976,0.03749 0.2649482,8.07e-4 0.0556,-0.02822 0.074133,-0.06107 0.09351,-0.164275 0.020217,-0.107418 0.03159,-0.136058 0.080453,-0.200923 0.04802,-0.0636 0.096038,-0.102355 0.2628415,-0.211874 0.1339485,-0.08761 0.1718584,-0.12173 0.2139807,-0.191235 0.01516,-0.02529 0.036228,-0.05392 0.046333,-0.06318 0.020642,-0.01895 0.036228,-0.02317 0.036228,-0.0097 0,0.0046 0.00506,0.02401 0.010955,0.04339 0.03159,0.100672 0.092246,0.157115 0.1878641,0.174388 0.060658,0.01146 0.1571158,0.0029 0.2464144,-0.02107 l 0.022323,-0.0058 0.00462,0.01727 c 0.00677,0.02485 0.00588,0.07203 -0.00213,0.104038 -0.00968,0.03959 -0.043809,0.105302 -0.07919,0.152481 -0.05097,0.06783 -0.157958,0.187864 -0.1861795,0.208505 -0.034959,0.0257 -0.093932,0.05349 -0.1920764,0.08972 -0.1293148,0.04801 -0.1798614,0.07834 -0.203871,0.122157 -0.024428,0.04507 -0.013901,0.102355 0.026535,0.142795 0.03286,0.03286 0.100251,0.06192 0.1663821,0.07203 0.067393,0.01006 0.1583797,0.0046 0.1895498,-0.01146 0.024429,-0.01268 0.058551,-0.05013 0.095196,-0.10446 0.053076,-0.07834 0.076662,-0.100239 0.2042914,-0.189549 0.051388,-0.03623 0.1368969,-0.09899 0.3159154,-0.231672 0.025699,-0.01895 0.069083,-0.05391 0.09688,-0.0775 0.034541,-0.02908 0.06235,-0.04886 0.088038,-0.06152 0.02022,-0.01052 0.039593,-0.01894 0.042547,-0.01894 0.00296,0 0.039594,0.01686 0.081295,0.03749 0.1284727,0.06318 0.1979727,0.0834 0.3007519,0.08761 0.075396,0.003 0.1436366,-0.0034 0.2350409,-0.02147 0.037061,-0.0077 0.06865,-0.01272 0.069492,-0.01146 0.00421,0.0037 0.00199,0.01769 -0.00421,0.02992 -0.00339,0.0068 -0.024844,0.02696 -0.047174,0.04507 -0.022751,0.0181 -0.04549,0.0396 -0.050552,0.04717 -0.025276,0.03747 -0.00164,0.07962 0.072871,0.128887 0.070778,0.04676 0.087613,0.05225 0.2139802,0.0695 0.118785,0.01685 0.150377,0.02737 0.178177,0.05897 0.01134,0.01311 0.01895,0.04127 0.01558,0.05897 -0.0068,0.03327 -0.04044,0.05013 -0.157539,0.08003 -0.115835,0.02949 -0.14532,0.04591 -0.142372,0.07962 l 0.0012,0.01515 0.07329,0.01769 c 0.08509,0.02065 0.141109,0.03074 0.168911,0.03074 0.01099,0 0.0417,-0.0037 0.06782,-0.0084 0.02654,-0.0042 0.07834,-0.01183 0.115414,-0.01685 0.127629,-0.01686 0.204292,-0.03581 0.252733,-0.06319 0.04759,-0.02696 0.08214,-0.07625 0.08214,-0.117937 0,-0.04295 -0.02528,-0.07413 -0.117942,-0.1449 -0.104038,-0.07918 -0.128472,-0.109511 -0.128472,-0.158381 4.35e-4,-0.04591 0.02401,-0.07371 0.09268,-0.107826 0.05939,-0.02948 0.0931,-0.03413 0.19418,-0.02864 l 0.04677,0.0029 0.0097,0.01937 c 0.0139,0.02864 0.04254,0.06739 0.06614,0.08972 0.07413,0.06865 0.149533,0.05391 0.212716,-0.0417 l 0.01432,-0.0219 0.04928,0.03664 c 0.05981,0.04507 0.08172,0.05687 0.113731,0.05897 0.02359,0.0018 0.02442,0.0018 0.04254,-0.01643 0.01134,-0.01183 0.02148,-0.02781 0.02696,-0.04254 0.01099,-0.02908 0.02065,-0.09983 0.02441,-0.172701 l 0.0025,-0.05349 0.01474,-0.0029 c 0.0257,-0.0046 0.09014,0.0012 0.117937,0.01099 0.01474,0.0051 0.06107,0.02908 0.103197,0.05349 0.11414,0.06612 0.195867,0.102777 0.302015,0.1369 0.0615,0.01937 0.07203,0.03075 0.120888,0.126363 0.04506,0.08889 0.06782,0.115006 0.122999,0.140693 0.02908,0.01397 0.03539,0.01854 0.04043,0.03117 0.0067,0.01685 0.01311,0.05559 0.01937,0.115835 0.005,0.04718 0.01005,0.06907 0.02107,0.09057 0.01474,0.02822 0.02317,0.03286 0.07582,0.04002 0.05685,0.0071 0.104039,0.008 0.120887,0.0018 0.03116,-0.01183 0.05097,-0.0518 0.04633,-0.09477 -0.0027,-0.02612 -0.02107,-0.06612 -0.04506,-0.09857 -0.0092,-0.01268 -0.04295,-0.05225 -0.07499,-0.08803 -0.0316,-0.03539 -0.06824,-0.07834 -0.0813,-0.09562 -0.02149,-0.02864 -0.02401,-0.03413 -0.02864,-0.06612 -0.0034,-0.01895 -0.01311,-0.06486 -0.02233,-0.101935 -0.04676,-0.188707 -0.110364,-0.287273 -0.227881,-0.353827 l -0.04465,-0.02521 -0.07962,-0.120049 c -0.04381,-0.06612 -0.100239,-0.147006 -0.125522,-0.180282 -0.02529,-0.03327 -0.0577,-0.08214 -0.07203,-0.108668 -0.06235,-0.115847 -0.111627,-0.165541 -0.264527,-0.267055 -0.0476,-0.0316 -0.08256,-0.05856 -0.104039,-0.08004 -0.01811,-0.01811 -0.03285,-0.03455 -0.03285,-0.03664 0,-0.0021 0.01643,-0.01599 0.03665,-0.03075 0.100671,-0.07455 0.221561,-0.185758 0.272108,-0.249784 0.151639,-0.192919 0.09097,-0.31381 -0.192918,-0.383732 -0.06403,-0.01558 -0.146165,-0.02992 -0.29654,-0.05138 -0.07499,-0.01052 -0.140689,-0.02107 -0.145743,-0.02274 -0.0072,-0.0027 -0.01099,-0.01006 -0.01643,-0.03117 -0.01979,-0.07962 0.002,-0.124681 0.08003,-0.162592 0.01937,-0.0097 0.09688,-0.03791 0.171437,-0.06276 0.137317,-0.04591 0.208083,-0.07287 0.281375,-0.106985 l 0.04043,-0.01895 0.0046,-0.03707 c 0.0075,-0.05644 0.0084,-0.07624 0.0046,-0.117938 -0.0058,-0.06824 -0.02612,-0.113731 -0.08465,-0.191655 -0.05097,-0.06783 -0.0598,-0.08761 -0.05687,-0.130155 8.07e-4,-0.01895 0.0056,-0.0396 0.01099,-0.0518 l 0.0088,-0.02062 -0.0177,0.003 c -0.09562,0.01433 -0.143636,0.032 -0.176491,0.06486 -0.03918,0.03919 -0.04212,0.0754 -0.016,0.177332 0.01686,0.06572 0.01854,0.107827 0.005,0.13268 -0.02232,0.04212 -0.08382,0.09731 -0.186602,0.168068 -0.08551,0.05897 -0.130999,0.09224 -0.157536,0.115414 -0.05601,0.04929 -0.09729,0.112047 -0.107838,0.163853 -0.02275,0.108668 0.04507,0.181968 0.212296,0.230409 0.04844,0.01433 0.139001,0.03201 0.270002,0.05308 0.120048,0.01937 0.187443,0.03368 0.227038,0.04759 0.143216,0.05222 0.101935,0.139852 -0.142793,0.304121 -0.07204,0.04844 -0.182812,0.115847 -0.190392,0.115847 -0.0026,0 -0.05855,-0.02401 -0.124261,-0.05308 -0.32139,-0.142795 -0.467975,-0.187022 -0.660475,-0.199659 -0.05812,-0.0042 -0.06698,-0.0056 -0.08004,-0.01475 -0.02738,-0.01895 -0.08172,-0.06572 -0.167645,-0.144058 -0.117099,-0.107417 -0.1558501,-0.140263 -0.2055559,-0.173962 -0.058128,-0.03959 -0.1166769,-0.06824 -0.1849143,-0.09057 -0.046753,-0.01515 -0.063611,-0.02317 -0.092675,-0.04295 -0.095201,-0.06572 -0.1701747,-0.147427 -0.215666,-0.235463 -0.023163,-0.04422 -0.033279,-0.07035 -0.046755,-0.121315 -0.010089,-0.03918 -0.010955,-0.04929 -0.010955,-0.124682 0,-0.07878 4.351e-4,-0.08425 0.013059,-0.131425 0.00713,-0.02696 0.017693,-0.05812 0.023164,-0.0695 0.019374,-0.03832 0.055596,-0.05391 0.1672251,-0.07078 0.07245,-0.01146 0.1057224,-0.02065 0.1267863,-0.0358 0.024855,-0.01769 0.034547,-0.05433 0.018963,-0.0716 -0.00421,-0.0046 -0.024855,-0.01769 -0.04549,-0.02864 -0.04086,-0.02148 -0.055194,-0.03496 -0.061928,-0.05897 -0.010054,-0.03623 8.079e-4,-0.07077 0.028631,-0.0931 0.00842,-0.0067 0.052236,-0.03075 0.096884,-0.053077 0.066557,-0.033682 0.086362,-0.045911 0.109522,-0.067387 0.05012,-0.046764 0.066569,-0.089296 0.062769,-0.1659631 -0.00257,-0.062337 -0.021477,-0.128886 -0.060232,-0.2131354 -0.012217,-0.02655 -0.068241,-0.1326809 -0.072882,-0.1377419 -0.00117,-0.00175 -0.00164,0.042111 -0.00117,0.096884 0.00292,0.1781768 -0.014743,0.2771628 -0.061074,0.3470848 -0.039598,0.060232 -0.080867,0.078342 -0.2118751,0.093517 -0.057705,0.00678 -0.098988,0.016426 -0.1267868,0.029917 l -0.015585,0.00748 -0.045491,-0.028643 c -0.1159128,-0.072962 -0.1875206,-0.088137 -0.2945107,-0.06327 -0.072036,0.016858 -0.1095174,0.017689 -0.1600645,0.00503 -0.09646,-0.024855 -0.2194564,-0.039586 -0.291485,-0.034968 -0.096037,0.0062 -0.1461633,0.02233 -0.2228253,0.072029 -0.018954,0.012264 -0.037908,0.023593 -0.042547,0.024855 -0.00631,0.0021 -0.034959,-0.01099 -0.097303,-0.043386 C 8.1217323,9.850377 8.108253,9.8415503 8.0669735,9.7998365 c -0.054757,-0.05517 -0.076662,-0.11414 -0.076662,-0.2063978 0,-0.057286 0.00801,-0.1137309 0.024847,-0.1781756 0.00631,-0.022739 0.010534,-0.042117 0.00968,-0.042959 -7.93e-4,-4.67e-4 -0.012204,0.0041 -0.024838,0.010522 z"
       id="path62"
       style="fill:#000000;stroke:none;stroke-width:0.00042122" />
    <path
       d="m 7.1246147,2.7206772 c 0.00874,0.00874 0.013654,0.010379 0.018028,0.00601 0.00384,-0.00384 0.012019,-0.00437 0.025128,-5.669e-4 0.010379,0.00275 0.022398,0.00384 0.027313,0.00218 0.00437,-0.00166 0.013109,-5.669e-4 0.019664,0.00327 0.013109,0.0071 0.064457,0.019119 0.1130741,0.026218 0.030043,0.00437 0.042062,0.0071 0.098325,0.024583 0.057357,0.017478 0.1474879,0.062819 0.2190468,0.1103428 0.014749,0.00983 0.030043,0.018028 0.034412,0.018028 0.00437,0 0.017479,0.010924 0.028952,0.023489 0.023489,0.026768 0.034958,0.033867 0.072651,0.045338 0.016934,0.00491 0.027858,0.011469 0.030043,0.018573 0.00275,0.00928 0.044246,0.033322 0.06118,0.036052 0.00384,5.669e-4 0.010924,0.00491 0.015844,0.00983 0.00437,0.00491 0.012564,0.00874 0.018024,0.00874 0.00491,0 0.024583,0.010924 0.0437,0.024033 0.018573,0.01311 0.040422,0.025673 0.048616,0.027858 0.00819,0.00166 0.019664,0.00819 0.025673,0.013109 0.00601,0.00547 0.020758,0.012019 0.032777,0.014203 0.012019,0.00218 0.028952,0.00491 0.038237,0.00656 0.00874,0.00166 0.019664,0.00765 0.023488,0.013109 0.00384,0.00601 0.013109,0.010379 0.019664,0.010379 0.0071,0 0.015839,0.00384 0.019664,0.00819 0.00384,0.00491 0.010379,0.00765 0.014203,0.00601 0.00327,-0.00109 0.012019,0.00327 0.019119,0.010924 0.00819,0.00874 0.015844,0.012019 0.022398,0.00983 0.0071,-0.00218 0.013654,0.00166 0.021303,0.010924 0.00601,0.00765 0.015294,0.014204 0.020758,0.014204 0.010924,0 0.1048799,0.046432 0.1300074,0.063912 0.00928,0.0071 0.019664,0.012564 0.022398,0.012564 0.00275,0 0.00656,0.00384 0.00874,0.00819 0.00166,0.00437 0.00765,0.00819 0.013654,0.00819 0.00547,0 0.022398,0.00983 0.036597,0.022398 0.014749,0.012019 0.034958,0.025673 0.044793,0.029497 0.010379,0.00437 0.019664,0.012564 0.021303,0.018573 0.00166,0.00547 0.00928,0.012019 0.016934,0.013654 0.00928,0.00218 0.021848,0.01311 0.033322,0.029497 0.012019,0.017478 0.025673,0.028952 0.040967,0.035507 0.031138,0.012564 0.040422,0.011474 0.048616,-0.00547 0.00928,-0.021303 0.022943,-0.033322 0.05681,-0.051347 0.039877,-0.021303 0.054625,-0.020213 0.093955,0.00601 0.034413,0.022943 0.061726,0.057902 0.08303,0.1070651 0.015844,0.036053 0.036052,0.05681 0.055171,0.05681 0.00874,0 0.024582,0.00384 0.034962,0.00819 0.017479,0.0071 0.021853,0.0071 0.039332,-5.232e-4 C 9.047415,3.580444 9.065443,3.56952 9.075823,3.561326 9.086202,3.553136 9.103136,3.541662 9.11297,3.536743 9.1228,3.531833 9.132089,3.524179 9.133728,3.51981 9.138098,3.509431 9.17306,3.504516 9.191085,3.51162 9.240793,3.532378 9.288864,3.6552841 9.280124,3.7394066 l -0.00327,0.033867 0.031138,0.037147 c 0.017478,0.020213 0.034962,0.039332 0.038783,0.041516 0.00983,0.00547 0.051894,0.071013 0.079207,0.1229064 0.033867,0.064457 0.044246,0.083031 0.066643,0.1201751 0.027313,0.045339 0.030043,0.061726 0.014749,0.081392 -0.00656,0.00819 -0.015839,0.016934 -0.020213,0.018573 -0.00819,0.00275 -0.014203,0.032227 -0.00656,0.032227 0.00218,0 0.00218,0.010924 0.00109,0.024034 -0.00218,0.018028 5.234e-4,0.031138 0.010379,0.053533 0.012564,0.026768 0.097232,0.1387476 0.1190822,0.1573201 0.00547,0.00437 0.018573,0.019664 0.028952,0.033322 0.046432,0.061726 0.1321927,0.1562281 0.1513117,0.1660604 0.011474,0.00601 0.027858,0.016389 0.036052,0.022943 0.013658,0.010379 0.014749,0.013109 0.010379,0.026768 -0.00874,0.024034 -0.045339,0.046977 -0.076476,0.046977 -0.021303,5.233e-4 -0.024582,0.00166 -0.017479,0.0071 0.00491,0.00384 0.0071,0.00874 0.00491,0.010924 -0.00218,0.00275 5.233e-4,0.00275 0.00656,5.233e-4 0.00765,-0.00275 0.00928,-0.00166 0.00656,0.00546 -0.00166,0.00437 -0.00327,0.00928 -0.00327,0.010379 0,0.00109 -0.011469,0.00874 -0.026223,0.018028 -0.034413,0.022398 -0.092862,0.039877 -0.1463951,0.044246 -0.042607,0.00384 -0.045885,0.00547 -0.078113,0.030588 -0.018573,0.014204 -0.034962,0.025128 -0.036597,0.023488 -0.00166,-0.00166 0.00109,-0.012564 0.00547,-0.023488 0.00491,-0.010924 0.0071,-0.022398 0.00547,-0.025128 -0.00166,-0.00275 -0.015839,-0.00874 -0.032227,-0.013654 -0.016389,-0.00437 -0.044246,-0.018573 -0.06118,-0.031683 -0.041517,-0.030592 -0.079753,-0.05244 -0.090678,-0.05244 -0.013654,0 -0.011469,0.022398 0.00437,0.045885 0.00765,0.010924 0.013659,0.021848 0.013659,0.024034 0,0.00218 0.010924,0.015294 0.024583,0.028403 0.029497,0.028952 0.032777,0.049708 0.010379,0.073744 -0.00819,0.00874 -0.012019,0.016934 -0.00874,0.020213 0.00819,0.00819 0.032777,-0.00491 0.042062,-0.022943 0.010924,-0.020758 0.018028,-0.021303 0.014749,-5.234e-4 -0.00275,0.020759 0.00765,0.026218 0.022943,0.012019 0.019664,-0.018573 0.028403,-0.013654 0.012019,0.0071 -0.015294,0.020758 -0.017478,0.030588 -0.00819,0.039877 0.00819,0.00819 5.234e-4,0.061726 -0.010379,0.075383 -0.012564,0.015294 -0.045885,0.027858 -0.092862,0.034958 -0.079207,0.012019 -0.1316467,0.00437 -0.1780777,-0.026218 -0.042607,-0.028952 -0.060633,-0.038782 -0.070466,-0.038782 -0.00601,0 -0.014203,-0.00437 -0.019119,-0.00983 -0.011474,-0.012564 -0.068281,-0.031138 -0.080299,-0.026218 -0.00491,0.00166 -0.013654,5.234e-4 -0.019119,-0.00218 -0.00601,-0.00327 -0.01147,-0.00327 -0.013109,-5.233e-4 -0.00166,0.00275 -0.018024,0.00384 -0.036052,0.00218 -0.023489,-0.00218 -0.032773,-0.00109 -0.032773,0.00327 0,0.00384 -0.00437,0.00601 -0.00983,0.00491 -0.013109,-0.00218 -0.028403,0.010379 -0.028403,0.023489 0,0.011469 -0.00874,0.014203 -0.012019,0.00437 -0.00327,-0.010379 -0.026218,0 -0.026218,0.011469 0,0.0071 -0.00491,0.012019 -0.013654,0.014204 -0.014749,0.00384 -0.016389,0.011469 -0.00874,0.039332 0.00437,0.013658 0.00384,0.017478 -0.00109,0.015839 -0.00384,-0.00109 -0.0071,-0.0071 -0.00819,-0.013654 -0.00218,-0.014203 -0.010379,-0.015839 -0.013658,-0.00275 -0.00166,0.00765 -0.00327,0.00601 -0.00601,-0.00491 -0.00491,-0.017479 -0.014203,-0.020213 -0.014203,-0.00437 0,0.00601 -0.00275,0.010924 -0.00547,0.010924 -0.00327,0 -0.00547,-0.00384 -0.00547,-0.00819 0,-0.00437 -0.00384,-0.00819 -0.00819,-0.00819 -0.0071,0 -0.00819,-0.00384 -0.00491,-0.019119 0.00275,-0.015844 0.00166,-0.019119 -0.00601,-0.019119 -0.00491,0 -0.010379,0.00491 -0.012019,0.010924 -0.00491,0.018028 -0.011469,0.012564 -0.010924,-0.00874 5.233e-4,-0.014203 -0.00275,-0.021848 -0.011474,-0.028952 -0.00764,-0.00547 -0.010379,-0.010924 -0.0071,-0.014203 0.00275,-0.00327 0.00655,-0.010924 0.00874,-0.018028 0.00327,-0.011469 0.00218,-0.012564 -0.00928,-0.010924 -0.00983,0.00109 -0.013658,0.00656 -0.018573,0.025673 -0.00327,0.014203 -0.0071,0.021848 -0.00983,0.018028 -0.00218,-0.00327 -0.00166,-0.014749 0.00109,-0.025128 0.00547,-0.019664 5.232e-4,-0.034413 -0.00928,-0.028403 -0.00327,0.00218 -0.00437,0.00983 -0.00275,0.016934 0.00166,0.00656 5.232e-4,0.014203 -0.00275,0.015844 -0.00327,0.00218 -0.00601,0.00109 -0.00601,-0.00166 0,-0.00327 -0.00384,-0.00601 -0.00874,-0.00601 -0.00765,0 -0.00874,-0.00384 -0.00601,-0.024583 0.00384,-0.025128 -5.233e-4,-0.030588 -0.012564,-0.016389 -0.012564,0.014749 -0.016934,0.00218 -0.00547,-0.015844 0.010924,-0.018028 0.014749,-0.046977 0.00656,-0.046977 -0.00275,0 -0.00983,0.00983 -0.016934,0.021848 -0.013109,0.023488 -0.026218,0.030043 -0.019664,0.00928 0.0071,-0.022398 0.00601,-0.039332 -0.00275,-0.039332 -0.00547,0 -0.00874,0.00656 -0.00983,0.017478 -0.00109,0.00983 -0.00491,0.018028 -0.00819,0.018028 -0.00437,0 -0.00601,-0.00819 -0.00437,-0.025128 0.00109,-0.019119 0.00437,-0.026218 0.012019,-0.027858 0.010924,-0.00275 0.012564,-0.010924 0.0071,-0.025673 -0.00437,-0.010924 -0.01311,-0.00601 -0.01311,0.00765 0,0.00547 -0.00491,0.011469 -0.010379,0.013654 -0.00547,0.00166 -0.011469,0.00819 -0.01311,0.014204 -0.00491,0.017478 -0.013109,0.00765 -0.010379,-0.012019 0.00166,-0.013109 5.233e-4,-0.016389 -0.00491,-0.014749 -0.00437,0.00109 -0.00819,0.00928 -0.00928,0.016933 -0.00166,0.013654 -0.012019,0.021303 -0.012019,0.00928 0,-0.015843 0.014749,-0.049163 0.021303,-0.049163 0.00601,0 0.00656,-0.00166 0.00218,-0.00601 -0.00437,-0.00437 -0.011474,-0.00384 -0.026218,0.00109 -0.019119,0.0071 -0.019664,0.00819 -0.016389,0.027858 0.00275,0.016389 0.00218,0.020759 -0.00437,0.020759 -0.00491,0 -0.00928,-0.00547 -0.010379,-0.012564 -0.00109,-0.00874 -0.00491,-0.011469 -0.014203,-0.010379 -0.00656,0.00109 -0.012019,-0.00109 -0.012019,-0.00437 0,-0.00384 -0.00437,-0.00491 -0.010379,-0.00275 -0.00983,0.00275 -0.010379,0.00109 -0.00765,-0.015844 0.00275,-0.017479 0.00166,-0.019664 -0.00874,-0.019664 -0.00874,0 -0.011469,0.00327 -0.011469,0.014749 0,0.022398 -0.00983,0.00819 -0.012019,-0.017478 -0.00218,-0.025673 -0.016933,-0.031138 -0.019664,-0.0071 -0.00109,0.00874 -0.00437,0.015294 -0.00765,0.015294 -0.00327,0 -0.00437,-0.00819 -0.00327,-0.019119 0.00218,-0.018028 0.00109,-0.019119 -0.013109,-0.019119 -0.00928,0 -0.016934,-0.00384 -0.020758,-0.010924 -0.00327,-0.00601 -0.00928,-0.010924 -0.013109,-0.010924 -0.00384,0 -0.013654,-0.00491 -0.021848,-0.011469 -0.00819,-0.00656 -0.018028,-0.00983 -0.024583,-0.00765 -0.013109,0.00384 -0.038783,-0.00601 -0.038783,-0.015294 0,-0.011474 -0.024583,-0.021848 -0.051894,-0.021848 -0.019119,0 -0.025128,-0.00218 -0.027858,-0.010379 -0.00327,-0.010379 -0.015839,-0.013109 -0.021303,-0.00437 -0.00437,0.0071 -0.028403,0.0071 -0.032777,0 -0.00166,-0.00275 -0.00656,-0.00384 -0.011474,-0.00166 -0.00437,0.00166 -0.014203,-0.00275 -0.021848,-0.00983 -0.010379,-0.00983 -0.015839,-0.011469 -0.022398,-0.0071 -0.010924,0.00656 -0.039332,-0.00166 -0.055171,-0.015839 -0.00928,-0.00819 -0.010924,-0.00819 -0.021848,-5.233e-4 -0.00983,0.0071 -0.014203,0.0071 -0.020758,0.00218 -0.012564,-0.010924 -0.055171,-0.016934 -0.072106,-0.010379 -0.028403,0.010379 -0.031138,0.027313 -0.010924,0.067189 0.00384,0.0071 0.00327,0.011474 -0.00166,0.014749 -0.00601,0.00327 -0.00547,0.00656 0.00218,0.014749 0.00491,0.00547 0.00928,0.015294 0.00928,0.021303 0,0.00656 0.00983,0.040422 0.022398,0.075929 0.030043,0.088492 0.032227,0.096686 0.032227,0.1130736 0,0.00819 0.00437,0.028952 0.010379,0.045885 0.00547,0.017479 0.01311,0.046432 0.016389,0.064457 0.00384,0.018028 0.019119,0.063365 0.034413,0.1010561 0.014749,0.037692 0.030043,0.075382 0.032777,0.084669 0.017479,0.050801 0.037147,0.081391 0.0874,0.1376552 0.011469,0.013109 0.020759,0.026218 0.020759,0.030043 0,0.00384 0.021303,0.028952 0.046978,0.056264 0.045885,0.047524 0.1005097,0.1103424 0.1480339,0.1693378 0.012019,0.015844 0.030588,0.044246 0.040422,0.063365 0.05244,0.1032413 0.077568,0.1360163 0.1207216,0.1573201 0.028403,0.014204 0.039877,0.016934 0.074836,0.017479 0.022943,0 0.053533,0.00218 0.068827,0.00491 0.014749,0.00327 0.040967,0.0071 0.057357,0.00874 0.035507,0.00437 0.057356,0.014749 0.1168973,0.055171 0.081391,0.055718 0.095048,0.067189 0.1010566,0.083576 0.00327,0.00928 0.00928,0.016389 0.014749,0.016389 0.00491,0 0.022398,0.00765 0.038237,0.016933 0.027313,0.015294 0.029497,0.018028 0.029497,0.037147 0,0.015294 0.00384,0.024033 0.016389,0.036052 0.024583,0.023489 0.014749,0.025673 -0.020213,0.00491 -0.032773,-0.019664 -0.1037874,-0.0437 -0.1097964,-0.037692 -0.00218,0.00218 0.014749,0.021303 0.037147,0.042062 0.039332,0.037147 0.040422,0.038237 0.021848,0.034413 -0.010379,-0.00218 -0.028952,-0.00874 -0.040967,-0.014203 -0.012019,-0.00547 -0.037692,-0.013654 -0.057357,-0.018573 -0.019664,-0.00491 -0.039877,-0.00983 -0.045338,-0.011469 -0.013654,-0.00437 -0.011474,0.00819 0.0071,0.036052 0.017478,0.026218 0.014203,0.042607 -0.00437,0.025673 -0.00656,-0.00601 -0.025673,-0.010924 -0.056264,-0.014203 -0.044246,-0.00437 -0.046977,-0.00384 -0.075929,0.011469 -0.026218,0.013654 -0.037147,0.015844 -0.079753,0.016934 -0.038783,5.233e-4 -0.05244,-0.00109 -0.063911,-0.00874 -0.00765,-0.00491 -0.024034,-0.00928 -0.035507,-0.00928 -0.013109,0 -0.024583,-0.00327 -0.028952,-0.00874 -0.00491,-0.00601 -0.012564,-0.00765 -0.026218,-0.00547 -0.010924,0.00218 -0.023489,0.00327 -0.027858,0.00327 -0.1922804,-0.00275 -0.2130378,-0.00437 -0.2376193,-0.018573 -0.012564,-0.00765 -0.033867,-0.024033 -0.046431,-0.036052 -0.017479,-0.016933 -0.026768,-0.021848 -0.041516,-0.021848 -0.012019,0 -0.020213,-0.00327 -0.022398,-0.00874 -0.00166,-0.00437 -0.00601,-0.0071 -0.010379,-0.00546 -0.00384,0.00166 -0.010924,-0.00327 -0.015294,-0.010924 -0.00491,-0.0071 -0.013654,-0.013109 -0.019664,-0.013109 -0.00601,0 -0.010924,-0.00384 -0.010924,-0.00819 0,-0.00983 -0.011469,-0.010924 -0.020759,-0.00166 -0.00491,0.00491 -0.00656,0.00384 -0.00656,-0.00491 0,-0.014203 -0.00928,-0.020759 -0.024583,-0.019119 -0.00819,0.00109 -0.013109,-0.00327 -0.017479,-0.015294 -0.00547,-0.014749 -0.00819,-0.016389 -0.016934,-0.011469 -0.00874,0.00491 -0.012564,0.00327 -0.019119,-0.00656 -0.00819,-0.012019 -0.00819,-0.012019 -0.016934,-0.00109 -0.00765,0.00983 -0.00819,0.010379 -0.00874,0.00109 0,-0.011469 -0.022398,-0.052987 -0.028952,-0.052987 -0.00218,0 -0.00384,0.00384 -0.00384,0.00874 0,0.011469 -0.010379,0.00384 -0.016389,-0.012019 -0.00384,-0.00928 -0.00928,-0.013109 -0.019119,-0.013109 -0.00765,0 -0.013654,-0.00275 -0.013654,-0.00546 0,-0.00327 -0.00384,-0.00547 -0.00819,-0.00547 -0.00437,0 -0.019119,-0.012019 -0.032777,-0.026768 -0.013654,-0.014749 -0.032228,-0.029497 -0.040967,-0.033322 -0.010379,-0.00437 -0.020213,-0.015294 -0.028403,-0.032227 -0.00874,-0.017478 -0.015839,-0.025128 -0.023488,-0.025128 -0.00656,0 -0.013654,-0.00601 -0.018028,-0.015294 -0.00437,-0.00874 -0.017479,-0.020213 -0.031683,-0.026768 -0.01311,-0.00656 -0.025673,-0.016389 -0.027313,-0.022398 -0.00166,-0.00547 -0.010379,-0.012564 -0.019119,-0.015844 -0.00874,-0.00327 -0.018573,-0.010379 -0.021848,-0.015844 -0.00275,-0.00547 -0.00983,-0.010379 -0.015294,-0.010379 -0.00547,0 -0.014203,-0.00491 -0.019664,-0.010924 -0.00547,-0.00601 -0.014203,-0.012019 -0.020213,-0.014204 -0.00547,-0.00166 -0.012564,-0.00928 -0.015294,-0.016389 -0.00384,-0.00983 -0.00928,-0.013109 -0.021303,-0.013109 -0.011474,0 -0.019664,-0.00491 -0.031138,-0.019119 -0.00819,-0.010379 -0.019119,-0.020213 -0.024583,-0.021848 -0.00491,-0.00166 -0.010924,-0.00929 -0.012564,-0.016389 -0.00218,-0.00928 -0.00765,-0.013654 -0.018573,-0.014749 -0.010379,-0.00109 -0.015294,-0.00491 -0.016389,-0.013658 -0.00218,-0.014203 -0.025673,-0.034413 -0.039877,-0.034413 -0.00765,0 -0.010379,-0.00384 -0.010379,-0.016389 0,-0.013109 -0.00218,-0.016389 -0.011474,-0.016389 -0.00601,0 -0.019119,-0.00874 -0.028952,-0.019119 -0.010379,-0.010379 -0.023488,-0.019119 -0.030043,-0.019119 -0.0071,0 -0.011469,-0.00327 -0.011469,-0.00874 0,-0.00601 -0.00275,-0.00765 -0.00874,-0.00547 -0.0071,0.00275 -0.00819,0 -0.00491,-0.018573 0.00327,-0.018028 0.00218,-0.021848 -0.00491,-0.021848 -0.012019,0 -0.036052,-0.015839 -0.036052,-0.024034 0,-0.00327 -0.00765,-0.010924 -0.016389,-0.015843 -0.010379,-0.00656 -0.016389,-0.014204 -0.016389,-0.022398 0,-0.0071 -0.00547,-0.016934 -0.011469,-0.022943 -0.00656,-0.00547 -0.015294,-0.018573 -0.019664,-0.028403 -0.00384,-0.00928 -0.010924,-0.017478 -0.015294,-0.017478 -0.00491,0 -0.00983,-0.0071 -0.012019,-0.016389 -0.00166,-0.00928 -0.0071,-0.019664 -0.012019,-0.023488 -0.00491,-0.00384 -0.01311,-0.015839 -0.018024,-0.027313 -0.00547,-0.010924 -0.012019,-0.020213 -0.015294,-0.020213 -0.00275,0 -0.00547,-0.00437 -0.00601,-0.00983 -5.67e-4,-0.00491 -0.012564,-0.020213 -0.027313,-0.033322 l -0.027313,-0.024034 -0.014749,0.010379 c -0.00819,0.00601 -0.018573,0.018573 -0.022943,0.027858 -0.00437,0.00928 -0.01311,0.018573 -0.019119,0.021303 -0.00601,0.00275 -0.011474,0.011469 -0.012564,0.019664 -0.00109,0.00874 -0.00491,0.015294 -0.00874,0.015294 -0.00384,0 -0.00874,0.010379 -0.012019,0.022943 -0.00437,0.021303 -0.00656,0.023488 -0.020759,0.023488 -0.00874,5.233e-4 -0.017478,0.00384 -0.018573,0.00819 -0.00166,0.00437 -0.00874,0.012564 -0.016389,0.019119 -0.00765,0.00601 -0.024583,0.021303 -0.038237,0.033867 -0.013654,0.013109 -0.028403,0.023488 -0.033322,0.023488 -0.010924,0 -0.037147,0.032227 -0.041517,0.050801 -0.00218,0.00874 -0.00928,0.015844 -0.019119,0.019119 -0.00819,0.00327 -0.016934,0.010924 -0.019119,0.016933 -0.00166,0.00656 -0.012019,0.015294 -0.021848,0.019119 -0.020759,0.00874 -0.080845,0.051894 -0.084122,0.060634 -0.00109,0.00275 -0.016389,0.019664 -0.033867,0.037142 -0.016934,0.017479 -0.032772,0.035508 -0.034413,0.039877 -0.00166,0.00384 -0.015294,0.014203 -0.030043,0.022398 -0.046432,0.026218 -0.07429,0.084669 -0.054079,0.1125276 0.00547,0.0071 0.019664,0.00983 0.064457,0.012564 0.035507,0.00166 0.066643,0.00656 0.081938,0.013109 0.013659,0.00547 0.033322,0.011469 0.0437,0.013654 0.028403,0.00601 0.087946,0.046977 0.1261836,0.085761 0.033867,0.035507 0.089039,0.1081576 0.084669,0.1125277 -0.00166,0.00109 -0.010924,-0.00384 -0.020758,-0.011469 -0.00983,-0.00765 -0.025673,-0.015844 -0.034413,-0.017479 -0.015294,-0.00384 -0.013654,-0.00166 0.019119,0.032773 0.019664,0.020213 0.030592,0.034962 0.024583,0.032777 -0.038237,-0.014749 -0.050255,-0.018573 -0.058995,-0.019119 -0.016934,0 -0.00983,0.00874 0.019119,0.024583 0.029497,0.015844 0.028403,0.024583 -0.00218,0.014203 -0.023489,-0.00819 -0.025673,-0.00765 -0.022398,0.00491 0.00166,0.00601 0,0.010924 -0.00327,0.010924 -0.00327,0 -0.00601,-0.00327 -0.00601,-0.0071 0,-0.00384 -0.010379,-0.010924 -0.022943,-0.016389 -0.019664,-0.00874 -0.031138,-0.00983 -0.085761,-0.00601 -0.081392,0.00491 -0.079753,0.00491 -0.1179902,-0.00275 C 6.3767832,5.96797 6.3205185,5.963055 6.3035848,5.96906 c -0.00928,0.00327 -0.041516,0.00491 -0.072105,0.00384 -0.038237,-0.00166 -0.056264,0 -0.057903,0.00437 -0.00166,0.00384 -0.00656,0.00218 -0.013654,-0.00437 -0.00874,-0.00765 -0.019664,-0.010379 -0.041516,-0.00983 -0.022398,0 -0.032228,-0.00218 -0.038783,-0.00983 C 6.0747138,5.94777 6.0626898,5.941221 6.0528558,5.939036 6.0266378,5.933566 6.0069708,5.921558 6.0031478,5.908993 6.0009678,5.902983 5.9944078,5.892604 5.9889448,5.887145 5.9834748,5.881675 5.9785658,5.871851 5.9785658,5.866386 c 0,-0.00601 -0.00275,-0.012564 -0.00547,-0.014204 -0.00327,-0.00166 -0.00547,-0.013109 -0.00547,-0.025128 0,-0.020759 -0.014203,-0.043152 -0.027313,-0.043152 -0.00327,0 -0.00547,-0.00327 -0.00547,-0.00765 0,-0.00384 -0.00384,-0.010379 -0.00819,-0.014203 -0.00437,-0.00384 -0.00819,-0.012564 -0.00819,-0.020213 0,-0.0071 -0.00384,-0.014204 -0.00819,-0.015844 -0.00437,-0.00218 -0.00819,-0.00928 -0.00819,-0.016934 0,-0.00765 -0.0071,-0.020213 -0.016389,-0.030043 -0.00928,-0.00874 -0.016389,-0.021303 -0.016389,-0.027313 0,-0.018028 -0.018028,-0.05244 -0.028403,-0.055171 -0.00819,-0.00218 -0.00874,-0.00491 -0.00327,-0.020214 0.00437,-0.013659 0.00437,-0.018573 -0.00109,-0.021848 -0.00874,-0.00547 -0.021848,-0.043152 -0.016389,-0.046432 0.00218,-0.00109 0.00547,-0.014749 0.00656,-0.030043 0.00218,-0.019664 0.00819,-0.034962 0.020213,-0.051894 0.010379,-0.014203 0.018024,-0.032228 0.019119,-0.044792 0.00218,-0.024583 0.013654,-0.050802 0.036052,-0.080845 0.00874,-0.012019 0.015839,-0.027858 0.015294,-0.035507 -5.669e-4,-0.00765 0.00765,-0.032228 0.018573,-0.054626 0.010379,-0.022398 0.023489,-0.051347 0.028952,-0.063912 0.00547,-0.012564 0.014203,-0.027313 0.019664,-0.032227 0.00601,-0.00547 0.010379,-0.015839 0.010379,-0.023489 5.669e-4,-0.014203 0.015294,-0.062819 0.024034,-0.075929 0.00218,-0.00384 0.00275,-0.016389 5.669e-4,-0.027313 -0.00327,-0.018573 -0.00437,-0.019119 -0.010924,-0.00983 -0.00547,0.0071 -0.011469,0.00929 -0.020758,0.00656 -0.00709,-0.00166 -0.014739,-0.00166 -0.016379,5.233e-4 -0.00218,0.00166 -0.018024,0.00384 -0.034962,0.00491 -0.017478,5.233e-4 -0.048617,0.00275 -0.069374,0.00384 -0.021848,0.00166 -0.0437,0 -0.051347,-0.00327 -0.010924,-0.00491 -0.014203,-0.00437 -0.020213,0.00327 -0.00601,0.00819 -0.00765,0.00874 -0.013654,0.00109 -0.00819,-0.00983 -0.031138,-0.010924 -0.033867,-0.00166 -0.00166,0.00491 -0.00491,0.00437 -0.012019,-0.00275 -0.012019,-0.011469 -0.019664,-0.012019 -0.019664,-5.233e-4 0,0.00547 -0.00327,0.00765 -0.00765,0.00601 C 5.7043787,4.99397 5.6967297,4.9961533 5.6907207,5 c -0.013109,0.010379 -0.028952,0.010379 -0.040422,-5.232e-4 -0.00764,-0.00656 -0.012019,-0.0071 -0.020759,-0.00218 -0.00656,0.00327 -0.011469,0.00983 -0.011469,0.014749 0,0.0071 -0.00166,0.00765 -0.00656,0.00275 -0.00928,-0.00928 -0.020759,-0.00819 -0.020759,0.00166 0,0.010379 -0.00765,0.010379 -0.016389,0 -0.011474,-0.013659 -0.016934,-0.00928 -0.013109,0.010924 0.00437,0.023488 0,0.024583 -0.01147,0.00275 -0.00491,-0.00874 -0.010924,-0.016389 -0.014203,-0.016389 -0.00384,0 -0.00437,0.00601 -0.00218,0.016389 0.00275,0.012564 0.00166,0.016389 -0.00437,0.016389 -0.00819,0 -0.014749,-0.015843 -0.014749,-0.037147 0,-0.013654 -0.00166,-0.014203 -0.015839,-0.00656 -0.0071,0.00327 -0.00928,0.00928 -0.00765,0.019119 0.00166,0.00819 5.669e-4,0.013654 -0.00327,0.013654 -0.00327,0 -0.00601,-0.00327 -0.00601,-0.0071 0,-0.00437 -0.00656,-0.013109 -0.014203,-0.020758 l -0.014749,-0.013109 0.00327,0.022943 c 0.00275,0.023488 -0.00437,0.032227 -0.010924,0.014203 -0.00656,-0.019664 -0.019664,-0.028952 -0.039332,-0.028952 -0.025128,0 -0.037692,0.00764 -0.030043,0.017479 0.00327,0.00384 0.010379,0.032773 0.015839,0.064458 0.00547,0.031683 0.012019,0.061726 0.014749,0.067188 0.00384,0.00765 0.00275,0.012019 -0.00437,0.016934 -0.00765,0.00601 -0.00874,0.012564 -0.00601,0.038237 0.00166,0.016933 0.00109,0.030592 -0.00166,0.030592 -0.00384,0 -0.00218,0.00874 0.010924,0.046432 0.00166,0.00601 0.00109,0.020758 -0.00109,0.032772 -0.00275,0.012019 -0.0071,0.045339 -0.00983,0.073744 -0.00275,0.028403 -0.00819,0.062819 -0.011469,0.076475 -0.00601,0.022943 -0.00928,0.061726 -0.012564,0.1392941 -0.00327,0.066643 -0.00983,0.1229064 -0.014749,0.1196287 -0.00983,-0.00601 -0.00437,0.023488 0.010379,0.051894 0.010924,0.022943 0.018573,0.031138 0.031138,0.034413 0.00874,0.00275 0.065551,0.00656 0.1261836,0.00928 0.1414789,0.00656 0.2075752,0.019119 0.2272402,0.042607 0.00327,0.00437 0.031138,0.019664 0.06118,0.034958 0.030592,0.015294 0.059541,0.032777 0.065004,0.038783 0.00547,0.00656 0.015294,0.014749 0.021303,0.017479 0.012564,0.00656 0.039332,0.054625 0.036052,0.064457 -0.00109,0.00327 -0.00765,-0.00275 -0.014749,-0.013654 -0.00656,-0.010924 -0.015844,-0.020213 -0.020213,-0.020213 -0.010379,0 -0.00983,0.018573 0.00109,0.027858 0.010924,0.00874 0.025673,0.037692 0.019664,0.037692 -0.00275,0 -0.00928,-0.00546 -0.015294,-0.01147 -0.013109,-0.015294 -0.045885,-0.028952 -0.05244,-0.022398 -0.00275,0.00275 0.00109,0.013109 0.00928,0.025128 0.020213,0.030043 0.012019,0.031138 -0.015294,0.00275 -0.013109,-0.013659 -0.026218,-0.024034 -0.030043,-0.022398 -0.00928,0.00275 -0.00819,0.023489 0.00218,0.038237 0.010379,0.014749 0.00275,0.015839 -0.015844,0.00109 -0.015294,-0.012019 -0.037147,-0.014203 -0.054079,-0.00491 -0.010924,0.00601 -0.010924,0.00601 0.00166,0.019119 0.015844,0.016934 0.00218,0.018573 -0.018573,0.00218 -0.00874,-0.0071 -0.015294,-0.00874 -0.017479,-0.00547 -0.00166,0.00275 -0.013654,0.00547 -0.025673,0.00547 -0.015294,0 -0.027858,0.00437 -0.039332,0.013109 -0.016389,0.012019 -0.044793,0.020213 -0.07429,0.020213 -0.063365,5.233e-4 -0.093955,-0.00109 -0.1054262,-0.00656 -0.010924,-0.00491 -0.019119,-0.00437 -0.038783,0.00218 -0.013654,0.00491 -0.025128,0.00601 -0.025128,0.00327 0,-0.00275 -0.00601,-0.00384 -0.013654,-0.00166 -0.00765,0.00166 -0.022943,-5.234e-4 -0.034962,-0.00491 -0.023489,-0.00983 -0.1168974,-0.021303 -0.1567742,-0.019664 -0.085761,0.00327 -0.1955572,-0.00874 -0.2135838,-0.023488 -0.00384,-0.00327 -0.010379,-0.00437 -0.015294,-0.00275 -0.00437,0.00218 -0.010379,-5.234e-4 -0.013109,-0.00601 -0.00437,-0.00765 -0.00656,-0.00819 -0.012019,-0.00218 -0.00384,0.00327 -0.012019,0.00601 -0.018573,0.00601 -0.00874,-5.234e-4 -0.00928,-0.00109 -0.00166,-0.00327 0.013109,-0.00327 0.012564,-0.012019 -0.00275,-0.046432 -0.014203,-0.031683 -0.032228,-0.059541 -0.052986,-0.081938 -0.00765,-0.00765 -0.029497,-0.034413 -0.048616,-0.058449 -0.025128,-0.031138 -0.038783,-0.044246 -0.047524,-0.044246 -0.00819,0 -0.012564,-0.00437 -0.014749,-0.015294 -0.00327,-0.016933 -0.023488,-0.041516 -0.038237,-0.046432 -0.00546,-0.00218 -0.00819,-0.00656 -0.00656,-0.00983 0.00218,-0.00275 0,-0.00983 -0.00437,-0.014749 -0.00437,-0.00491 -0.010924,-0.017479 -0.015294,-0.027313 -0.00437,-0.00983 -0.012019,-0.019119 -0.016934,-0.020758 -0.00491,-0.00166 -0.015294,-0.00983 -0.022398,-0.018028 -0.0071,-0.00874 -0.018024,-0.018573 -0.024583,-0.021848 -0.00656,-0.00327 -0.012019,-0.00983 -0.012019,-0.014203 0,-0.010379 -0.00491,-0.010379 -0.016934,5.233e-4 -0.00874,0.00819 -0.010379,0.00656 -0.020213,-0.016389 -0.00819,-0.017478 -0.015294,-0.025673 -0.025673,-0.028403 -0.012564,-0.00327 -0.013654,-0.00547 -0.010924,-0.019119 0.00384,-0.018028 0,-0.019664 -0.014749,-0.00656 -0.00983,0.00874 -0.012019,0.00874 -0.025128,0.00109 -0.010924,-0.00601 -0.015294,-0.013658 -0.017479,-0.029497 -0.00218,-0.019119 -0.00491,-0.022398 -0.018573,-0.024583 -0.00874,-0.00166 -0.017478,-0.0071 -0.019119,-0.012019 -0.00166,-0.00491 -0.013659,-0.016933 -0.026768,-0.026218 -0.012564,-0.00928 -0.026218,-0.022943 -0.029497,-0.030043 -0.00327,-0.00765 -0.00928,-0.013658 -0.013109,-0.013658 -0.00384,0 -0.00983,-0.00491 -0.013654,-0.011469 -0.00491,-0.00928 -0.00928,-0.010924 -0.024583,-0.00819 -0.016389,0.00327 -0.020759,0.00109 -0.037692,-0.015844 -0.010924,-0.010379 -0.028952,-0.025128 -0.040422,-0.032773 -0.011469,-0.0071 -0.026768,-0.021848 -0.033322,-0.032777 -0.010379,-0.016933 -0.014749,-0.019664 -0.027858,-0.018024 -0.013109,0.00218 -0.015844,5.233e-4 -0.015844,-0.00928 0,-0.00928 -0.00764,-0.015839 -0.034962,-0.029497 -0.019119,-0.00928 -0.039877,-0.016934 -0.046977,-0.016934 -0.00983,0 -0.01147,0.00218 -0.00819,0.015294 0.00218,0.011469 -5.67e-4,0.020758 -0.010379,0.034958 -0.0071,0.010924 -0.014203,0.026768 -0.015294,0.035507 -0.00109,0.012564 -0.00384,0.014749 -0.014203,0.013654 -0.010924,-0.00166 -0.012019,5.233e-4 -0.012019,0.020213 0,0.016389 -0.00275,0.023488 -0.010924,0.027858 -0.00601,0.00327 -0.016389,0.016933 -0.022943,0.031138 -0.0071,0.013654 -0.015294,0.025128 -0.018024,0.024583 -0.00819,-5.233e-4 -0.024583,0.015843 -0.024583,0.024583 0,0.00384 -0.00601,0.0071 -0.014203,0.0071 -0.014203,0 -0.045885,0.026218 -0.045885,0.038237 0,0.00384 -0.00437,0.00491 -0.010924,0.00275 -0.00819,-0.00275 -0.015844,0.00109 -0.027313,0.013658 -0.012019,0.013109 -0.020213,0.016934 -0.029497,0.015294 -0.00819,-0.00166 -0.014749,0.00109 -0.019119,0.00765 -0.00656,0.010379 -0.027858,0.013659 -0.027858,0.00437 0,-0.00327 -0.00275,-0.00547 -0.00547,-0.00547 -0.00327,0 -0.00546,0.00437 -0.00546,0.010379 0,0.012564 -0.026218,0.024033 -0.044246,0.019664 -0.00983,-0.00218 -0.016389,0 -0.023489,0.00765 -0.00601,0.00656 -0.015294,0.011469 -0.020758,0.011469 -0.00601,0 -0.015844,0.00275 -0.021848,0.00601 -0.025128,0.013109 -0.096686,0.028952 -0.1382011,0.030043 -0.1005101,0.00275 -0.1491262,0.015839 -0.1813553,0.049163 -0.013109,0.013109 -0.025675,0.024033 -0.028954,0.024033 -0.00275,0 -0.00551,0.00983 -0.00551,0.021303 0,0.016389 0.00384,0.025673 0.014752,0.037692 0.022946,0.024034 0.046435,0.031683 0.1223597,0.040967 0.062273,0.00765 0.07429,0.010924 0.1196293,0.032777 0.039332,0.019664 0.04807,0.021848 0.040422,0.01311 -0.00547,-0.00656 0.00765,0.00437 0.028403,0.024583 0.020758,0.020213 0.050802,0.048616 0.067189,0.062819 0.026218,0.023488 0.049163,0.058448 0.042607,0.06555 -0.00166,0.00109 -0.00983,-0.00437 -0.018028,-0.012564 -0.016934,-0.015294 -0.045885,-0.034962 -0.052986,-0.034962 -0.00983,0 -0.00218,0.020213 0.014749,0.038237 0.010379,0.010379 0.020759,0.026218 0.022943,0.035507 0.00384,0.015839 0.00327,0.015839 -0.00656,0.0071 -0.010379,-0.00928 -0.035507,-0.020759 -0.06118,-0.028403 -0.019664,-0.00656 -0.014749,0.00928 0.010379,0.028952 0.012019,0.00983 0.020759,0.019119 0.019664,0.020209 -0.00109,0.00166 -0.021303,-0.00275 -0.044793,-0.00928 -0.023488,-0.00601 -0.048616,-0.00983 -0.05681,-0.00819 -0.047524,0.00983 -0.066642,0.014203 -0.094501,0.022943 -0.028403,0.00874 -0.037692,0.00874 -0.093409,0.00218 -0.079753,-0.00928 -0.1895491,-0.00327 -0.1895491,0.00983 0,0.0071 -0.00167,0.00656 -0.00818,-0.00218 -0.00601,-0.00765 -0.00768,-0.00819 -0.00818,-0.00218 0,0.00491 -0.00167,0.00601 -0.00434,0.00218 -0.00492,-0.0071 -0.048613,-0.029497 -0.0579,-0.029497 -0.0038,0 -0.01038,-0.00384 -0.0142,-0.00819 -0.01257,-0.015294 -0.1349245,-0.1010566 -0.1840865,-0.1289158 -0.0153,-0.00928 -0.03114,-0.020213 -0.03441,-0.024034 -0.0038,-0.00437 -0.01257,-0.00819 -0.01967,-0.00819 -0.0098,0 -0.01257,-0.00275 -0.01202,-0.015294 5.66e-4,-0.00819 -0.0027,-0.024034 -0.006,-0.034962 -0.0049,-0.015844 -0.0054,-0.032777 -5.67e-4,-0.073744 0.0032,-0.029497 0.0071,-0.065004 0.0082,-0.079752 0.0011,-0.014203 0.0032,-0.027858 0.0054,-0.030588 0.0017,-0.00275 0.0054,-0.017478 0.0082,-0.032777 0.0028,-0.015839 0.01366,-0.040422 0.02458,-0.056264 0.01038,-0.015844 0.01912,-0.032777 0.01912,-0.037147 0,-0.018028 0.02731,-0.065551 0.04643,-0.080299 0.01202,-0.00981 0.02131,-0.02292 0.02513,-0.036029 0.0027,-0.011469 0.01147,-0.026218 0.01912,-0.032772 0.01475,-0.012564 0.04425,-0.067189 0.05244,-0.096686 0.0043,-0.015839 0.0153,-0.06118 0.03004,-0.1256377 0.0017,-0.00765 0.0066,-0.018028 0.01147,-0.022943 0.0066,-0.00765 0.0066,-0.011469 0.0017,-0.017478 -0.0055,-0.00656 -0.0038,-0.013654 0.0071,-0.037147 0.01147,-0.024034 0.01257,-0.030043 0.0066,-0.034413 -0.0066,-0.00491 -0.0066,-0.00819 -5.67e-4,-0.019119 0.0043,-0.00765 0.0087,-0.037147 0.01092,-0.06555 0.0017,-0.028403 0.0066,-0.075382 0.01092,-0.1037878 0.0125,-0.086308 0.013043,-0.091224 0.00761,-0.096686 -0.00325,-0.00327 -0.00325,-0.010924 5.67e-4,-0.020213 0.00275,-0.00819 0.00542,-0.038237 0.00542,-0.066643 0,-0.037147 0.00275,-0.05681 0.00874,-0.068827 0.01693,-0.032773 0.043698,-0.1398401 0.050257,-0.2010199 0.00275,-0.024583 0.00874,-0.042607 0.019116,-0.058995 0.00818,-0.012564 0.016388,-0.031138 0.018574,-0.040967 0.00167,-0.00983 0.01038,-0.039332 0.018574,-0.066643 0.00874,-0.026768 0.015837,-0.053532 0.015837,-0.060088 0,-0.013659 0.013109,-0.051894 0.027861,-0.080299 0.01038,-0.020213 0.01038,-0.022943 0.00275,-0.027313 -0.00492,-0.00275 -0.014752,-0.015294 -0.022396,-0.028403 -0.018032,-0.030588 -0.018032,-0.075929 0,-0.1125272 0.00659,-0.013654 0.016388,-0.037147 0.021303,-0.051894 0.00492,-0.015294 0.018574,-0.040967 0.030589,-0.05681 0.012016,-0.015844 0.024582,-0.038783 0.028412,-0.051347 0.00384,-0.012564 0.016388,-0.032227 0.02731,-0.043151 0.011465,-0.011469 0.02076,-0.023488 0.02076,-0.026768 0,-0.00327 0.016388,-0.022398 0.036055,-0.042607 0.020213,-0.019664 0.0437,-0.046432 0.05244,-0.059541 0.00874,-0.012564 0.018028,-0.022943 0.020758,-0.022943 0.00275,0 0.00874,-0.0071 0.013109,-0.015839 0.00928,-0.017479 0.065004,-0.077021 0.072106,-0.077021 0.00275,0 0.011469,-0.010924 0.019664,-0.023488 0.034413,-0.052987 0.0437,-0.063912 0.078114,-0.093409 0.019664,-0.016933 0.038237,-0.030588 0.040422,-0.030588 0.00218,0 0.012019,-0.012564 0.021303,-0.027313 0.010924,-0.017479 0.020758,-0.027313 0.027313,-0.027313 0.00601,0 0.019119,-0.00983 0.028952,-0.021303 0.010379,-0.011469 0.023489,-0.026768 0.030043,-0.033867 0.00601,-0.0071 0.019119,-0.018024 0.029497,-0.024033 0.00983,-0.00601 0.029497,-0.017479 0.043157,-0.025673 0.013654,-0.00819 0.034958,-0.020213 0.046977,-0.026768 0.012019,-0.00656 0.023488,-0.014749 0.025673,-0.018573 0.00218,-0.00384 0.010924,-0.00874 0.019119,-0.010924 0.00819,-0.00166 0.020759,-0.00765 0.028403,-0.013109 0.00765,-0.00491 0.032777,-0.017479 0.055171,-0.027313 0.022391,-0.00984 0.049702,-0.0224 0.06008,-0.02786 0.01037,-0.00491 0.025664,-0.010915 0.033313,-0.0131 0.00819,-0.00166 0.015844,-0.00819 0.017479,-0.014203 0.00218,-0.00874 0.0071,-0.010924 0.024583,-0.010924 0.014203,0 0.022943,-0.00275 0.025128,-0.00819 0.00166,-0.00437 0.00983,-0.00819 0.018024,-0.00819 0.00874,0 0.027858,-0.00656 0.042607,-0.014749 0.028952,-0.015294 0.1573202,-0.061726 0.1704302,-0.061726 0.00437,0 0.014749,-0.00491 0.023489,-0.010924 0.024579,-0.01748 0.1005054,-0.032774 0.202108,-0.041517 0.022398,-0.00166 0.067736,-0.00874 0.1010565,-0.016389 0.076475,-0.016389 0.1638751,-0.019664 0.2813194,-0.00983 0.049708,0.00384 0.1147125,0.00874 0.1447562,0.010379 0.030043,0.00166 0.070466,0.00765 0.090131,0.013659 0.019664,0.00547 0.045339,0.012019 0.057356,0.013654 0.012019,0.00218 0.047524,0.00819 0.079206,0.014749 0.031683,0.00601 0.080845,0.015294 0.10925,0.020758 0.028403,0.00547 0.068827,0.013109 0.090132,0.016389 0.020758,0.00384 0.067735,0.013109 0.1037878,0.020213 0.1043339,0.021848 0.3370366,0.031683 0.4069566,0.017479 0.016389,-0.00327 0.040967,-0.00656 0.054626,-0.0071 0.032228,-0.00218 0.1076111,-0.022943 0.1250913,-0.034412 0.026218,-0.017479 0.051894,-0.028952 0.064457,-0.028952 0.013109,0 0.020758,-0.00874 0.020758,-0.024034 0,-0.00656 0.00437,-0.010924 0.010924,-0.011469 0.016934,-0.00166 0.035508,-0.00874 0.035508,-0.013654 0,-0.00275 0.011469,-0.00874 0.025673,-0.014203 0.014749,-0.00547 0.029497,-0.014203 0.033322,-0.019119 0.00384,-0.00547 0.010924,-0.00983 0.016389,-0.00983 0.017479,0 0.042062,-0.00764 0.051347,-0.015294 0.00601,-0.00546 0.014749,-0.0071 0.025673,-0.00437 0.014203,0.00327 0.016933,0.00218 0.016933,-0.0071 0,-0.00928 0.00491,-0.011469 0.038783,-0.014749 0.032228,-0.00327 0.039332,-0.00601 0.042062,-0.014749 0.00166,-0.00765 0.00601,-0.00983 0.013659,-0.00765 0.00656,0.00166 0.014749,0 0.019119,-0.00384 0.00765,-0.00601 0.019664,-0.00819 0.080299,-0.012019 0.018028,-0.00109 0.0437,-0.00437 0.057357,-0.00765 0.018573,-0.00384 0.028952,-0.00327 0.043157,0.00275 0.010379,0.00437 0.023488,0.00656 0.028952,0.00437 0.00601,-0.00166 0.031138,-0.00327 0.05681,-0.00275 0.035507,0 0.046977,-0.00218 0.049708,-0.00819 0.00384,-0.010379 0.00819,-0.00983 0.022398,0.00437 z"
       id="path88"
       style="fill:#000000;stroke:none;stroke-width:0.000546252" />
  </g>
</svg>
